# MagicaVoxel @ Ephtracy

# group
g floor_1

# material
mtllib floor_1.mtl
usemtl palette

# normals
vn -1 0 0
vn 1 0 0
vn 0 0 1
vn 0 0 -1
vn 0 -1 0
vn 0 1 0

# texcoords
vt 0.365234 0.5
vt 0.369141 0.5
vt 0.373047 0.5

# verts
v -20 0 20
v -20 0 -20
v -20 38 20
v -20 38 -20
v -20 39 20
v -20 39 19
v -20 39 15
v -20 39 14
v -20 39 13
v -20 39 12
v -20 39 8
v -20 39 7
v -20 39 6
v -20 39 5
v -20 39 1
v -20 39 -0
v -20 39 -1
v -20 39 -2
v -20 39 -5
v -20 39 -6
v -20 39 -7
v -20 39 -8
v -20 39 -12
v -20 39 -13
v -20 39 -14
v -20 39 -15
v -20 39 -19
v -20 39 -20
v -20 40 20
v -20 40 19
v -20 40 15
v -20 40 14
v -20 40 13
v -20 40 12
v -20 40 8
v -20 40 7
v -20 40 6
v -20 40 5
v -20 40 1
v -20 40 -0
v -20 40 -1
v -20 40 -2
v -20 40 -5
v -20 40 -6
v -20 40 -7
v -20 40 -8
v -20 40 -12
v -20 40 -13
v -20 40 -14
v -20 40 -15
v -20 40 -19
v -20 40 -20
v 20 0 20
v 20 0 -20
v 20 38 20
v 20 38 -20
v 20 39 20
v 20 39 19
v 20 39 15
v 20 39 14
v 20 39 13
v 20 39 12
v 20 39 8
v 20 39 7
v 20 39 6
v 20 39 5
v 20 39 1
v 20 39 -0
v 20 39 -1
v 20 39 -2
v 20 39 -5
v 20 39 -6
v 20 39 -7
v 20 39 -8
v 20 39 -12
v 20 39 -13
v 20 39 -14
v 20 39 -15
v 20 39 -19
v 20 39 -20
v 20 40 20
v 20 40 19
v 20 40 15
v 20 40 14
v 20 40 13
v 20 40 12
v 20 40 8
v 20 40 7
v 20 40 6
v 20 40 5
v 20 40 1
v 20 40 -0
v 20 40 -1
v 20 40 -2
v 20 40 -5
v 20 40 -6
v 20 40 -7
v 20 40 -8
v 20 40 -12
v 20 40 -13
v 20 40 -14
v 20 40 -15
v 20 40 -19
v 20 40 -20
v -20 0 20
v -20 38 20
v -20 39 20
v -20 40 20
v 20 0 20
v 20 38 20
v 20 39 20
v 20 40 20
v -20 39 13
v -20 40 13
v -19 39 13
v 19 39 13
v 20 39 13
v 20 40 13
v -20 39 6
v -20 40 6
v -19 39 6
v 19 39 6
v 20 39 6
v 20 40 6
v -20 39 -1
v -20 40 -1
v -19 39 -1
v 19 39 -1
v 20 39 -1
v 20 40 -1
v -20 39 -7
v -20 40 -7
v -19 39 -7
v 19 39 -7
v 20 39 -7
v 20 40 -7
v -20 39 -14
v -20 40 -14
v -19 39 -14
v 19 39 -14
v 20 39 -14
v 20 40 -14
v -20 39 14
v -20 40 14
v -19 39 14
v 19 39 14
v 20 39 14
v 20 40 14
v -20 39 7
v -20 40 7
v -19 39 7
v 19 39 7
v 20 39 7
v 20 40 7
v -20 39 -0
v -20 40 -0
v -19 39 -0
v 19 39 -0
v 20 39 -0
v 20 40 -0
v -20 39 -6
v -20 40 -6
v -19 39 -6
v 19 39 -6
v 20 39 -6
v 20 40 -6
v -20 39 -13
v -20 40 -13
v -19 39 -13
v 19 39 -13
v 20 39 -13
v 20 40 -13
v -20 0 -20
v -20 38 -20
v -20 39 -20
v -20 40 -20
v 20 0 -20
v 20 38 -20
v 20 39 -20
v 20 40 -20
v -20 0 20
v 20 0 20
v -20 0 -20
v 20 0 -20
v -20 39 14
v -19 39 14
v 19 39 14
v 20 39 14
v -20 39 13
v -19 39 13
v 19 39 13
v 20 39 13
v -20 39 7
v -19 39 7
v 19 39 7
v 20 39 7
v -20 39 6
v -19 39 6
v 19 39 6
v 20 39 6
v -20 39 -0
v -19 39 -0
v 19 39 -0
v 20 39 -0
v -20 39 -1
v -19 39 -1
v 19 39 -1
v 20 39 -1
v -20 39 -6
v -19 39 -6
v 19 39 -6
v 20 39 -6
v -20 39 -7
v -19 39 -7
v 19 39 -7
v 20 39 -7
v -20 39 -13
v -19 39 -13
v 19 39 -13
v 20 39 -13
v -20 39 -14
v -19 39 -14
v 19 39 -14
v 20 39 -14
v -20 40 20
v 20 40 20
v -20 40 19
v 20 40 19
v 8 40 17
v 9 40 17
v 8 40 16
v 9 40 16
v -20 40 15
v 20 40 15
v -20 40 14
v 20 40 14
v -20 40 13
v 20 40 13
v -20 40 12
v 20 40 12
v -20 40 8
v 20 40 8
v -20 40 7
v 20 40 7
v -20 40 6
v 20 40 6
v -20 40 5
v 20 40 5
v -6 40 4
v -5 40 4
v -6 40 3
v -5 40 3
v -20 40 1
v 20 40 1
v -20 40 -0
v 20 40 -0
v -20 40 -1
v 20 40 -1
v -20 40 -2
v 15 40 -2
v 16 40 -2
v 20 40 -2
v 15 40 -3
v 16 40 -3
v -20 40 -5
v 20 40 -5
v -20 40 -6
v 20 40 -6
v -20 40 -7
v 20 40 -7
v -20 40 -8
v 20 40 -8
v -20 40 -12
v 20 40 -12
v -20 40 -13
v 20 40 -13
v -20 40 -14
v 20 40 -14
v -20 40 -15
v 15 40 -15
v 16 40 -15
v 20 40 -15
v 15 40 -16
v 16 40 -16
v -19 40 -17
v -18 40 -17
v -19 40 -18
v -18 40 -18
v -20 40 -19
v 20 40 -19
v -20 40 -20
v 20 40 -20

# faces
f 3/3/1 2/3/1 1/3/1
f 4/3/1 2/3/1 3/3/1
f 5/1/1 4/1/1 3/1/1
f 6/1/1 4/1/1 5/1/1
f 7/1/1 4/1/1 6/1/1
f 8/1/1 4/1/1 7/1/1
f 9/1/1 4/1/1 8/1/1
f 10/1/1 4/1/1 9/1/1
f 11/1/1 4/1/1 10/1/1
f 12/1/1 4/1/1 11/1/1
f 13/1/1 4/1/1 12/1/1
f 14/1/1 4/1/1 13/1/1
f 15/1/1 4/1/1 14/1/1
f 16/1/1 4/1/1 15/1/1
f 17/1/1 4/1/1 16/1/1
f 18/1/1 4/1/1 17/1/1
f 19/1/1 4/1/1 18/1/1
f 20/1/1 4/1/1 19/1/1
f 21/1/1 4/1/1 20/1/1
f 22/1/1 4/1/1 21/1/1
f 23/1/1 4/1/1 22/1/1
f 24/1/1 4/1/1 23/1/1
f 25/1/1 4/1/1 24/1/1
f 26/1/1 4/1/1 25/1/1
f 27/1/1 4/1/1 26/1/1
f 28/1/1 4/1/1 27/1/1
f 29/2/1 6/2/1 5/2/1
f 30/3/1 7/3/1 6/3/1
f 30/2/1 6/2/1 29/2/1
f 31/2/1 8/2/1 7/2/1
f 31/3/1 7/3/1 30/3/1
f 32/2/1 8/2/1 31/2/1
f 33/2/1 10/2/1 9/2/1
f 34/3/1 11/3/1 10/3/1
f 34/2/1 10/2/1 33/2/1
f 35/2/1 12/2/1 11/2/1
f 35/3/1 11/3/1 34/3/1
f 36/2/1 12/2/1 35/2/1
f 37/2/1 14/2/1 13/2/1
f 38/3/1 15/3/1 14/3/1
f 38/2/1 14/2/1 37/2/1
f 39/2/1 16/2/1 15/2/1
f 39/3/1 15/3/1 38/3/1
f 40/2/1 16/2/1 39/2/1
f 41/2/1 18/2/1 17/2/1
f 42/3/1 19/3/1 18/3/1
f 42/2/1 18/2/1 41/2/1
f 43/2/1 20/2/1 19/2/1
f 43/3/1 19/3/1 42/3/1
f 44/2/1 20/2/1 43/2/1
f 45/2/1 22/2/1 21/2/1
f 46/3/1 23/3/1 22/3/1
f 46/2/1 22/2/1 45/2/1
f 47/2/1 24/2/1 23/2/1
f 47/3/1 23/3/1 46/3/1
f 48/2/1 24/2/1 47/2/1
f 49/2/1 26/2/1 25/2/1
f 50/3/1 27/3/1 26/3/1
f 50/2/1 26/2/1 49/2/1
f 51/2/1 28/2/1 27/2/1
f 51/3/1 27/3/1 50/3/1
f 52/2/1 28/2/1 51/2/1
f 53/3/2 54/3/2 55/3/2
f 55/3/2 54/3/2 56/3/2
f 55/1/2 56/1/2 57/1/2
f 57/1/2 56/1/2 58/1/2
f 58/1/2 56/1/2 59/1/2
f 59/1/2 56/1/2 60/1/2
f 60/1/2 56/1/2 61/1/2
f 61/1/2 56/1/2 62/1/2
f 62/1/2 56/1/2 63/1/2
f 63/1/2 56/1/2 64/1/2
f 64/1/2 56/1/2 65/1/2
f 65/1/2 56/1/2 66/1/2
f 66/1/2 56/1/2 67/1/2
f 67/1/2 56/1/2 68/1/2
f 68/1/2 56/1/2 69/1/2
f 69/1/2 56/1/2 70/1/2
f 70/1/2 56/1/2 71/1/2
f 71/1/2 56/1/2 72/1/2
f 72/1/2 56/1/2 73/1/2
f 73/1/2 56/1/2 74/1/2
f 74/1/2 56/1/2 75/1/2
f 75/1/2 56/1/2 76/1/2
f 76/1/2 56/1/2 77/1/2
f 77/1/2 56/1/2 78/1/2
f 78/1/2 56/1/2 79/1/2
f 79/1/2 56/1/2 80/1/2
f 57/2/2 58/2/2 81/2/2
f 58/3/2 59/3/2 82/3/2
f 81/2/2 58/2/2 82/2/2
f 59/2/2 60/2/2 83/2/2
f 82/3/2 59/3/2 83/3/2
f 83/2/2 60/2/2 84/2/2
f 61/2/2 62/2/2 85/2/2
f 62/3/2 63/3/2 86/3/2
f 85/2/2 62/2/2 86/2/2
f 63/2/2 64/2/2 87/2/2
f 86/3/2 63/3/2 87/3/2
f 87/2/2 64/2/2 88/2/2
f 65/2/2 66/2/2 89/2/2
f 66/3/2 67/3/2 90/3/2
f 89/2/2 66/2/2 90/2/2
f 67/2/2 68/2/2 91/2/2
f 90/3/2 67/3/2 91/3/2
f 91/2/2 68/2/2 92/2/2
f 69/2/2 70/2/2 93/2/2
f 70/3/2 71/3/2 94/3/2
f 93/2/2 70/2/2 94/2/2
f 71/2/2 72/2/2 95/2/2
f 94/3/2 71/3/2 95/3/2
f 95/2/2 72/2/2 96/2/2
f 73/2/2 74/2/2 97/2/2
f 74/3/2 75/3/2 98/3/2
f 97/2/2 74/2/2 98/2/2
f 75/2/2 76/2/2 99/2/2
f 98/3/2 75/3/2 99/3/2
f 99/2/2 76/2/2 100/2/2
f 77/2/2 78/2/2 101/2/2
f 78/3/2 79/3/2 102/3/2
f 101/2/2 78/2/2 102/2/2
f 79/2/2 80/2/2 103/2/2
f 102/3/2 79/3/2 103/3/2
f 103/2/2 80/2/2 104/2/2
f 109/3/3 106/3/3 105/3/3
f 110/1/3 107/1/3 106/1/3
f 110/3/3 106/3/3 109/3/3
f 111/2/3 108/2/3 107/2/3
f 111/1/3 107/1/3 110/1/3
f 112/2/3 108/2/3 111/2/3
f 115/2/3 114/2/3 113/2/3
f 116/2/3 114/2/3 115/2/3
f 117/2/3 114/2/3 116/2/3
f 118/2/3 114/2/3 117/2/3
f 121/2/3 120/2/3 119/2/3
f 122/2/3 120/2/3 121/2/3
f 123/2/3 120/2/3 122/2/3
f 124/2/3 120/2/3 123/2/3
f 127/2/3 126/2/3 125/2/3
f 128/2/3 126/2/3 127/2/3
f 129/2/3 126/2/3 128/2/3
f 130/2/3 126/2/3 129/2/3
f 133/2/3 132/2/3 131/2/3
f 134/2/3 132/2/3 133/2/3
f 135/2/3 132/2/3 134/2/3
f 136/2/3 132/2/3 135/2/3
f 139/2/3 138/2/3 137/2/3
f 140/2/3 138/2/3 139/2/3
f 141/2/3 138/2/3 140/2/3
f 142/2/3 138/2/3 141/2/3
f 143/2/4 144/2/4 145/2/4
f 145/2/4 144/2/4 146/2/4
f 146/2/4 144/2/4 147/2/4
f 147/2/4 144/2/4 148/2/4
f 149/2/4 150/2/4 151/2/4
f 151/2/4 150/2/4 152/2/4
f 152/2/4 150/2/4 153/2/4
f 153/2/4 150/2/4 154/2/4
f 155/2/4 156/2/4 157/2/4
f 157/2/4 156/2/4 158/2/4
f 158/2/4 156/2/4 159/2/4
f 159/2/4 156/2/4 160/2/4
f 161/2/4 162/2/4 163/2/4
f 163/2/4 162/2/4 164/2/4
f 164/2/4 162/2/4 165/2/4
f 165/2/4 162/2/4 166/2/4
f 167/2/4 168/2/4 169/2/4
f 169/2/4 168/2/4 170/2/4
f 170/2/4 168/2/4 171/2/4
f 171/2/4 168/2/4 172/2/4
f 173/3/4 174/3/4 177/3/4
f 174/1/4 175/1/4 178/1/4
f 177/3/4 174/3/4 178/3/4
f 175/2/4 176/2/4 179/2/4
f 178/1/4 175/1/4 179/1/4
f 179/2/4 176/2/4 180/2/4
f 183/3/5 182/3/5 181/3/5
f 184/3/5 182/3/5 183/3/5
f 185/1/6 186/1/6 189/1/6
f 186/2/6 187/2/6 190/2/6
f 189/1/6 186/1/6 190/1/6
f 187/1/6 188/1/6 191/1/6
f 190/2/6 187/2/6 191/2/6
f 191/1/6 188/1/6 192/1/6
f 193/1/6 194/1/6 197/1/6
f 194/3/6 195/3/6 198/3/6
f 197/1/6 194/1/6 198/1/6
f 195/1/6 196/1/6 199/1/6
f 198/3/6 195/3/6 199/3/6
f 199/1/6 196/1/6 200/1/6
f 201/1/6 202/1/6 205/1/6
f 202/3/6 203/3/6 206/3/6
f 205/1/6 202/1/6 206/1/6
f 203/1/6 204/1/6 207/1/6
f 206/3/6 203/3/6 207/3/6
f 207/1/6 204/1/6 208/1/6
f 209/1/6 210/1/6 213/1/6
f 210/3/6 211/3/6 214/3/6
f 213/1/6 210/1/6 214/1/6
f 211/1/6 212/1/6 215/1/6
f 214/3/6 211/3/6 215/3/6
f 215/1/6 212/1/6 216/1/6
f 217/1/6 218/1/6 221/1/6
f 218/3/6 219/3/6 222/3/6
f 221/1/6 218/1/6 222/1/6
f 219/1/6 220/1/6 223/1/6
f 222/3/6 219/3/6 223/3/6
f 223/1/6 220/1/6 224/1/6
f 225/2/6 226/2/6 227/2/6
f 227/2/6 226/2/6 228/2/6
f 227/3/6 228/3/6 229/3/6
f 229/3/6 228/3/6 230/3/6
f 227/3/6 229/3/6 231/3/6
f 229/1/6 230/1/6 231/1/6
f 230/3/6 228/3/6 232/3/6
f 231/1/6 230/1/6 232/1/6
f 227/3/6 231/3/6 233/3/6
f 231/3/6 232/3/6 233/3/6
f 232/3/6 228/3/6 234/3/6
f 233/3/6 232/3/6 234/3/6
f 233/2/6 234/2/6 235/2/6
f 235/2/6 234/2/6 236/2/6
f 237/2/6 238/2/6 239/2/6
f 239/2/6 238/2/6 240/2/6
f 239/3/6 240/3/6 241/3/6
f 241/3/6 240/3/6 242/3/6
f 241/2/6 242/2/6 243/2/6
f 243/2/6 242/2/6 244/2/6
f 245/2/6 246/2/6 247/2/6
f 247/2/6 246/2/6 248/2/6
f 247/3/6 248/3/6 249/3/6
f 249/3/6 248/3/6 250/3/6
f 247/3/6 249/3/6 251/3/6
f 249/1/6 250/1/6 251/1/6
f 250/3/6 248/3/6 252/3/6
f 251/1/6 250/1/6 252/1/6
f 247/3/6 251/3/6 253/3/6
f 251/3/6 252/3/6 253/3/6
f 252/3/6 248/3/6 254/3/6
f 253/3/6 252/3/6 254/3/6
f 253/2/6 254/2/6 255/2/6
f 255/2/6 254/2/6 256/2/6
f 257/2/6 258/2/6 259/2/6
f 259/2/6 258/2/6 260/2/6
f 260/2/6 258/2/6 261/2/6
f 261/2/6 258/2/6 262/2/6
f 259/3/6 260/3/6 263/3/6
f 260/1/6 261/1/6 263/1/6
f 261/3/6 262/3/6 264/3/6
f 263/1/6 261/1/6 264/1/6
f 259/3/6 263/3/6 265/3/6
f 263/3/6 264/3/6 265/3/6
f 264/3/6 262/3/6 266/3/6
f 265/3/6 264/3/6 266/3/6
f 265/2/6 266/2/6 267/2/6
f 267/2/6 266/2/6 268/2/6
f 269/2/6 270/2/6 271/2/6
f 271/2/6 270/2/6 272/2/6
f 271/3/6 272/3/6 273/3/6
f 273/3/6 272/3/6 274/3/6
f 273/2/6 274/2/6 275/2/6
f 275/2/6 274/2/6 276/2/6
f 277/2/6 278/2/6 279/2/6
f 279/2/6 278/2/6 280/2/6
f 280/2/6 278/2/6 281/2/6
f 281/2/6 278/2/6 282/2/6
f 279/3/6 280/3/6 283/3/6
f 280/1/6 281/1/6 283/1/6
f 281/3/6 282/3/6 284/3/6
f 283/1/6 281/1/6 284/1/6
f 279/3/6 283/3/6 285/3/6
f 283/3/6 284/3/6 285/3/6
f 285/3/6 284/3/6 286/3/6
f 279/3/6 285/3/6 287/3/6
f 285/1/6 286/1/6 287/1/6
f 286/3/6 284/3/6 288/3/6
f 287/1/6 286/1/6 288/1/6
f 279/3/6 287/3/6 289/3/6
f 287/3/6 288/3/6 289/3/6
f 284/3/6 282/3/6 290/3/6
f 289/3/6 288/3/6 290/3/6
f 288/3/6 284/3/6 290/3/6
f 289/2/6 290/2/6 291/2/6
f 291/2/6 290/2/6 292/2/6
