# MagicaVoxel @ Ephtracy

# group
g Bingk_carpet

# material
mtllib Bingk_carpet.mtl
usemtl palette

# normals
vn -1 0 0
vn 1 0 0
vn 0 0 1
vn 0 0 -1
vn 0 -1 0
vn 0 1 0

# texcoords
vt 0.0410156 0.5
vt 0.0957031 0.5
vt 0.962891 0.5
vt 0.978516 0.5

# verts
v -20 0 20
v -20 0 -20
v -20 39 20
v -20 39 -20
v -20 40 20
v -20 40 -20
v 20 0 20
v 20 0 -20
v 20 39 20
v 20 39 -20
v 20 40 20
v 20 40 -20
v -20 0 20
v -20 39 20
v -20 40 20
v 20 0 20
v 20 39 20
v 20 40 20
v -20 0 -20
v -20 39 -20
v -20 40 -20
v 20 0 -20
v 20 39 -20
v 20 40 -20
v -20 0 20
v 20 0 20
v -20 0 -20
v 20 0 -20
v -20 40 20
v 20 40 20
v -10 40 17
v -9 40 17
v -10 40 16
v -9 40 16
v 11 40 15
v 12 40 15
v 11 40 14
v 12 40 14
v -1 40 13
v 0 40 13
v -11 40 12
v -10 40 12
v -1 40 12
v 0 40 12
v -11 40 11
v -10 40 11
v 10 40 10
v 11 40 10
v 10 40 9
v 11 40 9
v -6 40 6
v -5 40 6
v -6 40 5
v -5 40 5
v -18 40 4
v -17 40 4
v -18 40 3
v -17 40 3
v 0 40 3
v 1 40 3
v 0 40 2
v 1 40 2
v -8 40 -3
v -7 40 -3
v -8 40 -4
v -7 40 -4
v 8 40 -5
v 9 40 -5
v 8 40 -6
v 9 40 -6
v -2 40 -14
v -1 40 -14
v 15 40 -14
v 16 40 -14
v -2 40 -15
v -1 40 -15
v 15 40 -15
v 16 40 -15
v -20 40 -20
v 20 40 -20

# faces
f 3/1/1 2/1/1 1/1/1
f 4/1/1 2/1/1 3/1/1
f 5/4/1 4/4/1 3/4/1
f 6/4/1 4/4/1 5/4/1
f 7/1/2 8/1/2 9/1/2
f 9/1/2 8/1/2 10/1/2
f 9/4/2 10/4/2 11/4/2
f 11/4/2 10/4/2 12/4/2
f 16/1/3 14/1/3 13/1/3
f 17/4/3 15/4/3 14/4/3
f 17/1/3 14/1/3 16/1/3
f 18/4/3 15/4/3 17/4/3
f 19/1/4 20/1/4 22/1/4
f 20/4/4 21/4/4 23/4/4
f 22/1/4 20/1/4 23/1/4
f 23/4/4 21/4/4 24/4/4
f 27/1/5 26/1/5 25/1/5
f 28/1/5 26/1/5 27/1/5
f 29/4/6 30/4/6 31/4/6
f 31/4/6 30/4/6 32/4/6
f 29/4/6 31/4/6 33/4/6
f 31/2/6 32/2/6 33/2/6
f 32/4/6 30/4/6 34/4/6
f 33/2/6 32/2/6 34/2/6
f 33/4/6 34/4/6 35/4/6
f 34/4/6 30/4/6 35/4/6
f 35/4/6 30/4/6 36/4/6
f 33/4/6 35/4/6 37/4/6
f 35/2/6 36/2/6 37/2/6
f 36/4/6 30/4/6 38/4/6
f 37/2/6 36/2/6 38/2/6
f 33/4/6 37/4/6 39/4/6
f 37/4/6 38/4/6 39/4/6
f 39/4/6 38/4/6 40/4/6
f 29/4/6 33/4/6 41/4/6
f 33/4/6 39/4/6 41/4/6
f 41/4/6 39/4/6 42/4/6
f 39/3/6 40/3/6 43/3/6
f 42/4/6 39/4/6 43/4/6
f 40/4/6 38/4/6 44/4/6
f 43/3/6 40/3/6 44/3/6
f 41/3/6 42/3/6 45/3/6
f 29/4/6 41/4/6 45/4/6
f 42/4/6 43/4/6 46/4/6
f 45/3/6 42/3/6 46/3/6
f 43/4/6 44/4/6 46/4/6
f 44/4/6 38/4/6 47/4/6
f 46/4/6 44/4/6 47/4/6
f 45/4/6 46/4/6 47/4/6
f 47/4/6 38/4/6 48/4/6
f 45/4/6 47/4/6 49/4/6
f 47/3/6 48/3/6 49/3/6
f 48/4/6 38/4/6 50/4/6
f 49/3/6 48/3/6 50/3/6
f 45/4/6 49/4/6 51/4/6
f 49/4/6 50/4/6 51/4/6
f 51/4/6 50/4/6 52/4/6
f 45/4/6 51/4/6 53/4/6
f 51/2/6 52/2/6 53/2/6
f 52/4/6 50/4/6 54/4/6
f 53/2/6 52/2/6 54/2/6
f 29/4/6 45/4/6 55/4/6
f 45/4/6 53/4/6 55/4/6
f 53/4/6 54/4/6 55/4/6
f 55/4/6 54/4/6 56/4/6
f 29/4/6 55/4/6 57/4/6
f 55/2/6 56/2/6 57/2/6
f 56/4/6 54/4/6 58/4/6
f 57/2/6 56/2/6 58/2/6
f 54/4/6 50/4/6 59/4/6
f 58/4/6 54/4/6 59/4/6
f 59/4/6 50/4/6 60/4/6
f 57/4/6 58/4/6 61/4/6
f 58/4/6 59/4/6 61/4/6
f 59/3/6 60/3/6 61/3/6
f 60/4/6 50/4/6 62/4/6
f 61/3/6 60/3/6 62/3/6
f 57/4/6 61/4/6 63/4/6
f 61/4/6 62/4/6 63/4/6
f 63/4/6 62/4/6 64/4/6
f 57/4/6 63/4/6 65/4/6
f 63/3/6 64/3/6 65/3/6
f 64/4/6 62/4/6 66/4/6
f 65/3/6 64/3/6 66/3/6
f 62/4/6 50/4/6 67/4/6
f 66/4/6 62/4/6 67/4/6
f 65/4/6 66/4/6 67/4/6
f 67/4/6 50/4/6 68/4/6
f 65/4/6 67/4/6 69/4/6
f 67/3/6 68/3/6 69/3/6
f 68/4/6 50/4/6 70/4/6
f 69/3/6 68/3/6 70/3/6
f 65/4/6 69/4/6 71/4/6
f 69/4/6 70/4/6 71/4/6
f 71/4/6 70/4/6 72/4/6
f 38/4/6 30/4/6 73/4/6
f 72/4/6 70/4/6 73/4/6
f 50/4/6 38/4/6 73/4/6
f 70/4/6 50/4/6 73/4/6
f 73/4/6 30/4/6 74/4/6
f 71/3/6 72/3/6 75/3/6
f 65/4/6 71/4/6 75/4/6
f 72/4/6 73/4/6 76/4/6
f 75/3/6 72/3/6 76/3/6
f 73/2/6 74/2/6 77/2/6
f 76/4/6 73/4/6 77/4/6
f 74/4/6 30/4/6 78/4/6
f 77/2/6 74/2/6 78/2/6
f 57/4/6 65/4/6 79/4/6
f 76/4/6 77/4/6 79/4/6
f 77/4/6 78/4/6 79/4/6
f 65/4/6 75/4/6 79/4/6
f 29/4/6 57/4/6 79/4/6
f 75/4/6 76/4/6 79/4/6
f 78/4/6 30/4/6 80/4/6
f 79/4/6 78/4/6 80/4/6
