# MagicaVoxel @ Ephtracy

# group
g tablelamp

# material
mtllib tablelamp.mtl
usemtl palette

# normals
vn -1 0 0
vn 1 0 0
vn 0 0 1
vn 0 0 -1
vn 0 -1 0
vn 0 1 0

# texcoords
vt 0.849609 0.5
vt 0.958984 0.5
vt 0.990234 0.5

# verts
v -7 0 7
v -7 0 -7
v -7 1 7
v -7 1 -7
v -7 13 7
v -7 13 -7
v -7 15 7
v -7 15 -7
v -6 15 6
v -6 15 -6
v -6 17 6
v -6 17 -6
v -5 17 5
v -5 17 -5
v -5 19 5
v -5 19 -5
v -4 19 4
v -4 19 -4
v -4 21 4
v -4 21 -4
v -3 1 6
v -3 1 -6
v -3 2 6
v -3 2 -6
v -3 21 3
v -3 21 -3
v -3 23 3
v -3 23 -3
v -1 2 1
v -1 2 -1
v -1 13 1
v -1 13 -1
v 1 2 1
v 1 2 -1
v 1 13 1
v 1 13 -1
v 3 1 6
v 3 1 -6
v 3 2 6
v 3 2 -6
v 3 21 3
v 3 21 -3
v 3 23 3
v 3 23 -3
v 4 19 4
v 4 19 -4
v 4 21 4
v 4 21 -4
v 5 17 5
v 5 17 -5
v 5 19 5
v 5 19 -5
v 6 15 6
v 6 15 -6
v 6 17 6
v 6 17 -6
v 7 0 7
v 7 0 -7
v 7 1 7
v 7 1 -7
v 7 13 7
v 7 13 -7
v 7 15 7
v 7 15 -7
v -7 0 7
v -7 1 7
v -7 13 7
v -7 15 7
v 7 0 7
v 7 1 7
v 7 13 7
v 7 15 7
v -6 15 6
v -6 17 6
v -3 1 6
v -3 2 6
v 3 1 6
v 3 2 6
v 6 15 6
v 6 17 6
v -5 17 5
v -5 19 5
v 5 17 5
v 5 19 5
v -4 19 4
v -4 21 4
v 4 19 4
v 4 21 4
v -3 21 3
v -3 23 3
v 3 21 3
v 3 23 3
v -1 2 1
v -1 13 1
v 1 2 1
v 1 13 1
v -1 2 -1
v -1 13 -1
v 1 2 -1
v 1 13 -1
v -3 21 -3
v -3 23 -3
v 3 21 -3
v 3 23 -3
v -4 19 -4
v -4 21 -4
v 4 19 -4
v 4 21 -4
v -5 17 -5
v -5 19 -5
v 5 17 -5
v 5 19 -5
v -6 15 -6
v -6 17 -6
v -3 1 -6
v -3 2 -6
v 3 1 -6
v 3 2 -6
v 6 15 -6
v 6 17 -6
v -7 0 -7
v -7 1 -7
v -7 13 -7
v -7 15 -7
v 7 0 -7
v 7 1 -7
v 7 13 -7
v 7 15 -7
v -7 0 7
v 7 0 7
v -7 0 -7
v 7 0 -7
v -7 13 7
v 7 13 7
v -1 13 1
v 1 13 1
v -1 13 -1
v 1 13 -1
v -7 13 -7
v 7 13 -7
v -7 1 7
v 7 1 7
v -3 1 6
v 3 1 6
v -3 1 -6
v 3 1 -6
v -7 1 -7
v 7 1 -7
v -3 2 6
v 3 2 6
v -1 2 1
v 1 2 1
v -1 2 -1
v 1 2 -1
v -3 2 -6
v 3 2 -6
v -7 15 7
v 7 15 7
v -6 15 6
v 6 15 6
v -6 15 -6
v 6 15 -6
v -7 15 -7
v 7 15 -7
v -6 17 6
v 6 17 6
v -5 17 5
v 5 17 5
v -5 17 -5
v 5 17 -5
v -6 17 -6
v 6 17 -6
v -5 19 5
v 5 19 5
v -4 19 4
v 4 19 4
v -4 19 -4
v 4 19 -4
v -5 19 -5
v 5 19 -5
v -4 21 4
v 4 21 4
v -3 21 3
v 3 21 3
v -3 21 -3
v 3 21 -3
v -4 21 -4
v 4 21 -4
v -3 23 3
v 3 23 3
v -3 23 -3
v 3 23 -3

# faces
f 3/3/1 2/3/1 1/3/1
f 4/3/1 2/3/1 3/3/1
f 7/2/1 6/2/1 5/2/1
f 8/2/1 6/2/1 7/2/1
f 11/2/1 10/2/1 9/2/1
f 12/2/1 10/2/1 11/2/1
f 15/2/1 14/2/1 13/2/1
f 16/2/1 14/2/1 15/2/1
f 19/2/1 18/2/1 17/2/1
f 20/2/1 18/2/1 19/2/1
f 23/1/1 22/1/1 21/1/1
f 24/1/1 22/1/1 23/1/1
f 27/2/1 26/2/1 25/2/1
f 28/2/1 26/2/1 27/2/1
f 31/3/1 30/3/1 29/3/1
f 32/3/1 30/3/1 31/3/1
f 33/3/2 34/3/2 35/3/2
f 35/3/2 34/3/2 36/3/2
f 37/1/2 38/1/2 39/1/2
f 39/1/2 38/1/2 40/1/2
f 41/2/2 42/2/2 43/2/2
f 43/2/2 42/2/2 44/2/2
f 45/2/2 46/2/2 47/2/2
f 47/2/2 46/2/2 48/2/2
f 49/2/2 50/2/2 51/2/2
f 51/2/2 50/2/2 52/2/2
f 53/2/2 54/2/2 55/2/2
f 55/2/2 54/2/2 56/2/2
f 57/3/2 58/3/2 59/3/2
f 59/3/2 58/3/2 60/3/2
f 61/2/2 62/2/2 63/2/2
f 63/2/2 62/2/2 64/2/2
f 69/3/3 66/3/3 65/3/3
f 70/3/3 66/3/3 69/3/3
f 71/2/3 68/2/3 67/2/3
f 72/2/3 68/2/3 71/2/3
f 77/1/3 76/1/3 75/1/3
f 78/1/3 76/1/3 77/1/3
f 79/2/3 74/2/3 73/2/3
f 80/2/3 74/2/3 79/2/3
f 83/2/3 82/2/3 81/2/3
f 84/2/3 82/2/3 83/2/3
f 87/2/3 86/2/3 85/2/3
f 88/2/3 86/2/3 87/2/3
f 91/2/3 90/2/3 89/2/3
f 92/2/3 90/2/3 91/2/3
f 95/3/3 94/3/3 93/3/3
f 96/3/3 94/3/3 95/3/3
f 97/3/4 98/3/4 99/3/4
f 99/3/4 98/3/4 100/3/4
f 101/2/4 102/2/4 103/2/4
f 103/2/4 102/2/4 104/2/4
f 105/2/4 106/2/4 107/2/4
f 107/2/4 106/2/4 108/2/4
f 109/2/4 110/2/4 111/2/4
f 111/2/4 110/2/4 112/2/4
f 115/1/4 116/1/4 117/1/4
f 117/1/4 116/1/4 118/1/4
f 113/2/4 114/2/4 119/2/4
f 119/2/4 114/2/4 120/2/4
f 121/3/4 122/3/4 125/3/4
f 125/3/4 122/3/4 126/3/4
f 123/2/4 124/2/4 127/2/4
f 127/2/4 124/2/4 128/2/4
f 131/3/5 130/3/5 129/3/5
f 132/3/5 130/3/5 131/3/5
f 135/2/5 134/2/5 133/2/5
f 136/2/5 134/2/5 135/2/5
f 137/2/5 135/2/5 133/2/5
f 138/2/5 134/2/5 136/2/5
f 139/2/5 137/2/5 133/2/5
f 139/2/5 138/2/5 137/2/5
f 140/2/5 134/2/5 138/2/5
f 140/2/5 138/2/5 139/2/5
f 141/3/6 142/3/6 143/3/6
f 143/3/6 142/3/6 144/3/6
f 141/3/6 143/3/6 145/3/6
f 144/3/6 142/3/6 146/3/6
f 141/3/6 145/3/6 147/3/6
f 145/3/6 146/3/6 147/3/6
f 146/3/6 142/3/6 148/3/6
f 147/3/6 146/3/6 148/3/6
f 149/1/6 150/1/6 151/1/6
f 151/1/6 150/1/6 152/1/6
f 149/1/6 151/1/6 153/1/6
f 152/1/6 150/1/6 154/1/6
f 149/1/6 153/1/6 155/1/6
f 153/1/6 154/1/6 155/1/6
f 154/1/6 150/1/6 156/1/6
f 155/1/6 154/1/6 156/1/6
f 157/2/6 158/2/6 159/2/6
f 159/2/6 158/2/6 160/2/6
f 157/2/6 159/2/6 161/2/6
f 160/2/6 158/2/6 162/2/6
f 157/2/6 161/2/6 163/2/6
f 161/2/6 162/2/6 163/2/6
f 162/2/6 158/2/6 164/2/6
f 163/2/6 162/2/6 164/2/6
f 165/2/6 166/2/6 167/2/6
f 167/2/6 166/2/6 168/2/6
f 165/2/6 167/2/6 169/2/6
f 168/2/6 166/2/6 170/2/6
f 165/2/6 169/2/6 171/2/6
f 169/2/6 170/2/6 171/2/6
f 170/2/6 166/2/6 172/2/6
f 171/2/6 170/2/6 172/2/6
f 173/2/6 174/2/6 175/2/6
f 175/2/6 174/2/6 176/2/6
f 173/2/6 175/2/6 177/2/6
f 176/2/6 174/2/6 178/2/6
f 173/2/6 177/2/6 179/2/6
f 177/2/6 178/2/6 179/2/6
f 178/2/6 174/2/6 180/2/6
f 179/2/6 178/2/6 180/2/6
f 181/2/6 182/2/6 183/2/6
f 183/2/6 182/2/6 184/2/6
f 181/2/6 183/2/6 185/2/6
f 184/2/6 182/2/6 186/2/6
f 181/2/6 185/2/6 187/2/6
f 185/2/6 186/2/6 187/2/6
f 186/2/6 182/2/6 188/2/6
f 187/2/6 186/2/6 188/2/6
f 189/2/6 190/2/6 191/2/6
f 191/2/6 190/2/6 192/2/6
