# MagicaVoxel @ Ephtracy

# group
g cabinet

# material
mtllib cabinet.mtl
usemtl palette

# normals
vn -1 0 0
vn 1 0 0
vn 0 0 1
vn 0 0 -1
vn 0 -1 0
vn 0 1 0

# texcoords
vt 0.0878906 0.5
vt 0.369141 0.5
vt 0.373047 0.5

# verts
v -20 0 18
v -20 0 -18
v -20 38 18
v -20 38 -18
v 16 0 18
v 16 0 -18
v 16 3 17
v 16 3 1
v 16 3 -1
v 16 3 -17
v 16 37 17
v 16 37 1
v 16 37 -1
v 16 37 -17
v 16 38 18
v 16 38 -18
v 17 3 17
v 17 3 1
v 17 3 -1
v 17 3 -17
v 17 17 5
v 17 17 2
v 17 17 -2
v 17 17 -5
v 17 23 5
v 17 23 2
v 17 23 -2
v 17 23 -5
v 17 37 17
v 17 37 1
v 17 37 -1
v 17 37 -17
v 18 17 5
v 18 17 2
v 18 17 -2
v 18 17 -5
v 18 23 5
v 18 23 2
v 18 23 -2
v 18 23 -5
v -20 0 18
v -20 38 18
v 16 0 18
v 16 38 18
v 16 3 17
v 16 37 17
v 17 3 17
v 17 37 17
v 17 17 5
v 17 23 5
v 18 17 5
v 18 23 5
v 16 3 -1
v 16 37 -1
v 17 3 -1
v 17 37 -1
v 17 17 -2
v 17 23 -2
v 18 17 -2
v 18 23 -2
v 17 17 2
v 17 23 2
v 18 17 2
v 18 23 2
v 16 3 1
v 16 37 1
v 17 3 1
v 17 37 1
v 17 17 -5
v 17 23 -5
v 18 17 -5
v 18 23 -5
v 16 3 -17
v 16 37 -17
v 17 3 -17
v 17 37 -17
v -20 0 -18
v -20 38 -18
v 16 0 -18
v 16 38 -18
v -20 0 18
v 16 0 18
v -20 0 -18
v 16 0 -18
v 16 3 17
v 17 3 17
v 16 3 1
v 17 3 1
v 16 3 -1
v 17 3 -1
v 16 3 -17
v 17 3 -17
v 17 17 5
v 18 17 5
v 17 17 2
v 18 17 2
v 17 17 -2
v 18 17 -2
v 17 17 -5
v 18 17 -5
v 17 23 5
v 18 23 5
v 17 23 2
v 18 23 2
v 17 23 -2
v 18 23 -2
v 17 23 -5
v 18 23 -5
v 16 37 17
v 17 37 17
v 16 37 1
v 17 37 1
v 16 37 -1
v 17 37 -1
v 16 37 -17
v 17 37 -17
v -20 38 18
v 16 38 18
v -20 38 -18
v 16 38 -18

# faces
f 3/1/1 2/1/1 1/1/1
f 4/1/1 2/1/1 3/1/1
f 5/1/2 6/1/2 7/1/2
f 7/1/2 6/1/2 8/1/2
f 8/1/2 6/1/2 9/1/2
f 9/1/2 6/1/2 10/1/2
f 5/1/2 7/1/2 11/1/2
f 8/1/2 9/1/2 12/1/2
f 12/1/2 9/1/2 13/1/2
f 10/1/2 6/1/2 14/1/2
f 12/1/2 13/1/2 15/1/2
f 13/1/2 14/1/2 15/1/2
f 5/1/2 11/1/2 15/1/2
f 11/1/2 12/1/2 15/1/2
f 14/1/2 6/1/2 16/1/2
f 15/1/2 14/1/2 16/1/2
f 17/2/2 18/2/2 21/2/2
f 21/2/2 18/2/2 22/2/2
f 19/2/2 20/2/2 23/2/2
f 23/2/2 20/2/2 24/2/2
f 17/2/2 21/2/2 25/2/2
f 22/2/2 18/2/2 26/2/2
f 19/2/2 23/2/2 27/2/2
f 24/2/2 20/2/2 28/2/2
f 17/2/2 25/2/2 29/2/2
f 25/2/2 26/2/2 29/2/2
f 26/2/2 18/2/2 30/2/2
f 29/2/2 26/2/2 30/2/2
f 27/2/2 28/2/2 31/2/2
f 19/2/2 27/2/2 31/2/2
f 28/2/2 20/2/2 32/2/2
f 31/2/2 28/2/2 32/2/2
f 33/3/2 34/3/2 37/3/2
f 37/3/2 34/3/2 38/3/2
f 35/3/2 36/3/2 39/3/2
f 39/3/2 36/3/2 40/3/2
f 43/1/3 42/1/3 41/1/3
f 44/1/3 42/1/3 43/1/3
f 47/2/3 46/2/3 45/2/3
f 48/2/3 46/2/3 47/2/3
f 51/3/3 50/3/3 49/3/3
f 52/3/3 50/3/3 51/3/3
f 55/2/3 54/2/3 53/2/3
f 56/2/3 54/2/3 55/2/3
f 59/3/3 58/3/3 57/3/3
f 60/3/3 58/3/3 59/3/3
f 61/3/4 62/3/4 63/3/4
f 63/3/4 62/3/4 64/3/4
f 65/2/4 66/2/4 67/2/4
f 67/2/4 66/2/4 68/2/4
f 69/3/4 70/3/4 71/3/4
f 71/3/4 70/3/4 72/3/4
f 73/2/4 74/2/4 75/2/4
f 75/2/4 74/2/4 76/2/4
f 77/1/4 78/1/4 79/1/4
f 79/1/4 78/1/4 80/1/4
f 83/1/5 82/1/5 81/1/5
f 84/1/5 82/1/5 83/1/5
f 87/2/5 86/2/5 85/2/5
f 88/2/5 86/2/5 87/2/5
f 91/2/5 90/2/5 89/2/5
f 92/2/5 90/2/5 91/2/5
f 95/3/5 94/3/5 93/3/5
f 96/3/5 94/3/5 95/3/5
f 99/3/5 98/3/5 97/3/5
f 100/3/5 98/3/5 99/3/5
f 101/3/6 102/3/6 103/3/6
f 103/3/6 102/3/6 104/3/6
f 105/3/6 106/3/6 107/3/6
f 107/3/6 106/3/6 108/3/6
f 109/2/6 110/2/6 111/2/6
f 111/2/6 110/2/6 112/2/6
f 113/2/6 114/2/6 115/2/6
f 115/2/6 114/2/6 116/2/6
f 117/1/6 118/1/6 119/1/6
f 119/1/6 118/1/6 120/1/6
