# MagicaVoxel @ Ephtracy

# group
g washingmachine

# material
mtllib washingmachine.mtl
usemtl palette

# normals
vn -1 0 0
vn 1 0 0
vn 0 0 1
vn 0 0 -1
vn 0 -1 0
vn 0 1 0

# texcoords
vt 0.958984 0.5
vt 0.966797 0.5

# verts
v -19 20 16
v -19 20 -14
v -19 23 16
v -19 23 -14
v -19 30 13
v -19 30 10
v -19 30 4
v -19 30 1
v -19 30 -5
v -19 30 -8
v -19 30 -13
v -19 30 -16
v -19 31 14
v -19 31 13
v -19 31 10
v -19 31 9
v -19 31 5
v -19 31 4
v -19 31 1
v -19 31 -0
v -19 31 -4
v -19 31 -5
v -19 31 -8
v -19 31 -9
v -19 31 -12
v -19 31 -13
v -19 31 -16
v -19 31 -17
v -19 32 12
v -19 32 11
v -19 32 3
v -19 32 2
v -19 32 -6
v -19 32 -7
v -19 32 -14
v -19 32 -15
v -19 33 12
v -19 33 11
v -19 33 3
v -19 33 2
v -19 33 -6
v -19 33 -7
v -19 33 -14
v -19 33 -15
v -19 34 14
v -19 34 13
v -19 34 10
v -19 34 9
v -19 34 5
v -19 34 4
v -19 34 1
v -19 34 -0
v -19 34 -4
v -19 34 -5
v -19 34 -8
v -19 34 -9
v -19 34 -12
v -19 34 -13
v -19 34 -16
v -19 34 -17
v -19 35 13
v -19 35 10
v -19 35 4
v -19 35 1
v -19 35 -5
v -19 35 -8
v -19 35 -13
v -19 35 -16
v -18 2 18
v -18 2 -17
v -18 20 16
v -18 20 -14
v -18 23 16
v -18 23 -14
v -18 25 18
v -18 25 -17
v -18 30 20
v -18 30 13
v -18 30 10
v -18 30 4
v -18 30 1
v -18 30 -5
v -18 30 -8
v -18 30 -13
v -18 30 -16
v -18 30 -20
v -18 31 14
v -18 31 13
v -18 31 10
v -18 31 9
v -18 31 5
v -18 31 4
v -18 31 1
v -18 31 -0
v -18 31 -4
v -18 31 -5
v -18 31 -8
v -18 31 -9
v -18 31 -12
v -18 31 -13
v -18 31 -16
v -18 31 -17
v -18 32 12
v -18 32 11
v -18 32 3
v -18 32 2
v -18 32 -6
v -18 32 -7
v -18 32 -14
v -18 32 -15
v -18 33 12
v -18 33 11
v -18 33 3
v -18 33 2
v -18 33 -6
v -18 33 -7
v -18 33 -14
v -18 33 -15
v -18 34 14
v -18 34 13
v -18 34 10
v -18 34 9
v -18 34 5
v -18 34 4
v -18 34 1
v -18 34 -0
v -18 34 -4
v -18 34 -5
v -18 34 -8
v -18 34 -9
v -18 34 -12
v -18 34 -13
v -18 34 -16
v -18 34 -17
v -18 35 13
v -18 35 10
v -18 35 4
v -18 35 1
v -18 35 -5
v -18 35 -8
v -18 35 -13
v -18 35 -16
v -18 36 20
v -18 36 -20
v -17 0 20
v -17 0 -20
v -17 2 18
v -17 2 -17
v -17 25 18
v -17 25 -17
v -17 30 20
v -17 30 -20
v -17 36 20
v -17 36 -20
v -17 38 20
v -17 38 -20
v 20 0 20
v 20 0 -20
v 20 38 20
v 20 38 -20
v -18 30 20
v -18 36 20
v -17 0 20
v -17 30 20
v -17 36 20
v -17 38 20
v 20 0 20
v 20 38 20
v -18 2 18
v -18 25 18
v -17 2 18
v -17 25 18
v -19 20 16
v -19 23 16
v -18 20 16
v -18 23 16
v -19 31 14
v -19 34 14
v -18 31 14
v -18 34 14
v -19 30 13
v -19 31 13
v -19 34 13
v -19 35 13
v -18 30 13
v -18 31 13
v -18 34 13
v -18 35 13
v -19 32 11
v -19 33 11
v -18 32 11
v -18 33 11
v -19 31 5
v -19 34 5
v -18 31 5
v -18 34 5
v -19 30 4
v -19 31 4
v -19 34 4
v -19 35 4
v -18 30 4
v -18 31 4
v -18 34 4
v -18 35 4
v -19 32 2
v -19 33 2
v -18 32 2
v -18 33 2
v -19 31 -4
v -19 34 -4
v -18 31 -4
v -18 34 -4
v -19 30 -5
v -19 31 -5
v -19 34 -5
v -19 35 -5
v -18 30 -5
v -18 31 -5
v -18 34 -5
v -18 35 -5
v -19 32 -7
v -19 33 -7
v -18 32 -7
v -18 33 -7
v -19 31 -12
v -19 34 -12
v -18 31 -12
v -18 34 -12
v -19 30 -13
v -19 31 -13
v -19 34 -13
v -19 35 -13
v -18 30 -13
v -18 31 -13
v -18 34 -13
v -18 35 -13
v -19 32 -15
v -19 33 -15
v -18 32 -15
v -18 33 -15
v -19 32 12
v -19 33 12
v -18 32 12
v -18 33 12
v -19 30 10
v -19 31 10
v -19 34 10
v -19 35 10
v -18 30 10
v -18 31 10
v -18 34 10
v -18 35 10
v -19 31 9
v -19 34 9
v -18 31 9
v -18 34 9
v -19 32 3
v -19 33 3
v -18 32 3
v -18 33 3
v -19 30 1
v -19 31 1
v -19 34 1
v -19 35 1
v -18 30 1
v -18 31 1
v -18 34 1
v -18 35 1
v -19 31 -0
v -19 34 -0
v -18 31 -0
v -18 34 -0
v -19 32 -6
v -19 33 -6
v -18 32 -6
v -18 33 -6
v -19 30 -8
v -19 31 -8
v -19 34 -8
v -19 35 -8
v -18 30 -8
v -18 31 -8
v -18 34 -8
v -18 35 -8
v -19 31 -9
v -19 34 -9
v -18 31 -9
v -18 34 -9
v -19 20 -14
v -19 23 -14
v -19 32 -14
v -19 33 -14
v -18 20 -14
v -18 23 -14
v -18 32 -14
v -18 33 -14
v -19 30 -16
v -19 31 -16
v -19 34 -16
v -19 35 -16
v -18 30 -16
v -18 31 -16
v -18 34 -16
v -18 35 -16
v -19 31 -17
v -19 34 -17
v -18 2 -17
v -18 25 -17
v -18 31 -17
v -18 34 -17
v -17 2 -17
v -17 25 -17
v -18 30 -20
v -18 36 -20
v -17 0 -20
v -17 30 -20
v -17 36 -20
v -17 38 -20
v 20 0 -20
v 20 38 -20
v -17 0 20
v 20 0 20
v -17 0 -20
v 20 0 -20
v -18 2 18
v -17 2 18
v -18 2 -17
v -17 2 -17
v -19 20 16
v -18 20 16
v -19 20 -14
v -18 20 -14
v -18 30 20
v -17 30 20
v -19 30 13
v -18 30 13
v -19 30 10
v -18 30 10
v -19 30 4
v -18 30 4
v -19 30 1
v -18 30 1
v -19 30 -5
v -18 30 -5
v -19 30 -8
v -18 30 -8
v -19 30 -13
v -18 30 -13
v -19 30 -16
v -18 30 -16
v -18 30 -20
v -17 30 -20
v -19 31 14
v -18 31 14
v -19 31 13
v -18 31 13
v -19 31 10
v -18 31 10
v -19 31 9
v -18 31 9
v -19 31 5
v -18 31 5
v -19 31 4
v -18 31 4
v -19 31 1
v -18 31 1
v -19 31 -0
v -18 31 -0
v -19 31 -4
v -18 31 -4
v -19 31 -5
v -18 31 -5
v -19 31 -8
v -18 31 -8
v -19 31 -9
v -18 31 -9
v -19 31 -12
v -18 31 -12
v -19 31 -13
v -18 31 -13
v -19 31 -16
v -18 31 -16
v -19 31 -17
v -18 31 -17
v -19 33 12
v -18 33 12
v -19 33 11
v -18 33 11
v -19 33 3
v -18 33 3
v -19 33 2
v -18 33 2
v -19 33 -6
v -18 33 -6
v -19 33 -7
v -18 33 -7
v -19 33 -14
v -18 33 -14
v -19 33 -15
v -18 33 -15
v -19 23 16
v -18 23 16
v -19 23 -14
v -18 23 -14
v -18 25 18
v -17 25 18
v -18 25 -17
v -17 25 -17
v -19 32 12
v -18 32 12
v -19 32 11
v -18 32 11
v -19 32 3
v -18 32 3
v -19 32 2
v -18 32 2
v -19 32 -6
v -18 32 -6
v -19 32 -7
v -18 32 -7
v -19 32 -14
v -18 32 -14
v -19 32 -15
v -18 32 -15
v -19 34 14
v -18 34 14
v -19 34 13
v -18 34 13
v -19 34 10
v -18 34 10
v -19 34 9
v -18 34 9
v -19 34 5
v -18 34 5
v -19 34 4
v -18 34 4
v -19 34 1
v -18 34 1
v -19 34 -0
v -18 34 -0
v -19 34 -4
v -18 34 -4
v -19 34 -5
v -18 34 -5
v -19 34 -8
v -18 34 -8
v -19 34 -9
v -18 34 -9
v -19 34 -12
v -18 34 -12
v -19 34 -13
v -18 34 -13
v -19 34 -16
v -18 34 -16
v -19 34 -17
v -18 34 -17
v -19 35 13
v -18 35 13
v -19 35 10
v -18 35 10
v -19 35 4
v -18 35 4
v -19 35 1
v -18 35 1
v -19 35 -5
v -18 35 -5
v -19 35 -8
v -18 35 -8
v -19 35 -13
v -18 35 -13
v -19 35 -16
v -18 35 -16
v -18 36 20
v -17 36 20
v -18 36 -20
v -17 36 -20
v -17 38 20
v 20 38 20
v -17 38 -20
v 20 38 -20

# faces
f 3/2/1 2/2/1 1/2/1
f 4/2/1 2/2/1 3/2/1
f 14/1/1 6/1/1 5/1/1
f 15/1/1 6/1/1 14/1/1
f 18/1/1 8/1/1 7/1/1
f 19/1/1 8/1/1 18/1/1
f 22/1/1 10/1/1 9/1/1
f 23/1/1 10/1/1 22/1/1
f 26/1/1 12/1/1 11/1/1
f 27/1/1 12/1/1 26/1/1
f 29/1/1 16/1/1 15/1/1
f 29/1/1 14/1/1 13/1/1
f 29/1/1 15/1/1 14/1/1
f 30/1/1 16/1/1 29/1/1
f 31/1/1 20/1/1 19/1/1
f 31/1/1 18/1/1 17/1/1
f 31/1/1 19/1/1 18/1/1
f 32/1/1 20/1/1 31/1/1
f 33/1/1 24/1/1 23/1/1
f 33/1/1 22/1/1 21/1/1
f 33/1/1 23/1/1 22/1/1
f 34/1/1 24/1/1 33/1/1
f 35/1/1 28/1/1 27/1/1
f 35/1/1 27/1/1 26/1/1
f 35/1/1 26/1/1 25/1/1
f 36/1/1 28/1/1 35/1/1
f 37/1/1 29/1/1 13/1/1
f 38/1/1 16/1/1 30/1/1
f 39/1/1 31/1/1 17/1/1
f 40/1/1 20/1/1 32/1/1
f 41/1/1 33/1/1 21/1/1
f 42/1/1 24/1/1 34/1/1
f 43/1/1 35/1/1 25/1/1
f 44/1/1 28/1/1 36/1/1
f 45/1/1 37/1/1 13/1/1
f 45/1/1 38/1/1 37/1/1
f 46/1/1 38/1/1 45/1/1
f 47/1/1 16/1/1 38/1/1
f 47/1/1 38/1/1 46/1/1
f 48/1/1 16/1/1 47/1/1
f 49/1/1 39/1/1 17/1/1
f 49/1/1 40/1/1 39/1/1
f 50/1/1 40/1/1 49/1/1
f 51/1/1 20/1/1 40/1/1
f 51/1/1 40/1/1 50/1/1
f 52/1/1 20/1/1 51/1/1
f 53/1/1 41/1/1 21/1/1
f 53/1/1 42/1/1 41/1/1
f 54/1/1 42/1/1 53/1/1
f 55/1/1 24/1/1 42/1/1
f 55/1/1 42/1/1 54/1/1
f 56/1/1 24/1/1 55/1/1
f 57/1/1 44/1/1 43/1/1
f 57/1/1 43/1/1 25/1/1
f 58/1/1 44/1/1 57/1/1
f 59/1/1 28/1/1 44/1/1
f 59/1/1 44/1/1 58/1/1
f 60/1/1 28/1/1 59/1/1
f 61/1/1 47/1/1 46/1/1
f 62/1/1 47/1/1 61/1/1
f 63/1/1 51/1/1 50/1/1
f 64/1/1 51/1/1 63/1/1
f 65/1/1 55/1/1 54/1/1
f 66/1/1 55/1/1 65/1/1
f 67/1/1 59/1/1 58/1/1
f 68/1/1 59/1/1 67/1/1
f 71/2/1 70/2/1 69/2/1
f 72/2/1 70/2/1 71/2/1
f 73/2/1 71/2/1 69/2/1
f 74/2/1 70/2/1 72/2/1
f 75/2/1 73/2/1 69/2/1
f 75/2/1 74/2/1 73/2/1
f 76/2/1 70/2/1 74/2/1
f 76/2/1 74/2/1 75/2/1
f 87/2/1 78/2/1 77/2/1
f 88/2/1 78/2/1 87/2/1
f 89/2/1 80/2/1 79/2/1
f 90/2/1 80/2/1 89/2/1
f 91/2/1 80/2/1 90/2/1
f 92/2/1 80/2/1 91/2/1
f 93/2/1 82/2/1 81/2/1
f 94/2/1 82/2/1 93/2/1
f 95/2/1 82/2/1 94/2/1
f 96/2/1 82/2/1 95/2/1
f 97/2/1 84/2/1 83/2/1
f 98/2/1 84/2/1 97/2/1
f 99/2/1 84/2/1 98/2/1
f 100/2/1 84/2/1 99/2/1
f 101/2/1 86/2/1 85/2/1
f 102/2/1 86/2/1 101/2/1
f 111/2/1 104/2/1 103/2/1
f 112/2/1 104/2/1 111/2/1
f 113/2/1 106/2/1 105/2/1
f 114/2/1 106/2/1 113/2/1
f 115/2/1 108/2/1 107/2/1
f 116/2/1 108/2/1 115/2/1
f 117/2/1 110/2/1 109/2/1
f 118/2/1 110/2/1 117/2/1
f 119/2/1 87/2/1 77/2/1
f 122/2/1 91/2/1 90/2/1
f 123/2/1 91/2/1 122/2/1
f 126/2/1 95/2/1 94/2/1
f 127/2/1 95/2/1 126/2/1
f 130/2/1 99/2/1 98/2/1
f 131/2/1 99/2/1 130/2/1
f 134/2/1 86/2/1 102/2/1
f 135/2/1 120/2/1 119/2/1
f 136/2/1 124/2/1 123/2/1
f 136/2/1 122/2/1 121/2/1
f 136/2/1 123/2/1 122/2/1
f 137/2/1 124/2/1 136/2/1
f 138/2/1 128/2/1 127/2/1
f 138/2/1 126/2/1 125/2/1
f 138/2/1 127/2/1 126/2/1
f 139/2/1 128/2/1 138/2/1
f 140/2/1 131/2/1 130/2/1
f 140/2/1 132/2/1 131/2/1
f 140/2/1 130/2/1 129/2/1
f 141/2/1 132/2/1 140/2/1
f 142/2/1 134/2/1 133/2/1
f 143/2/1 139/2/1 138/2/1
f 143/2/1 142/2/1 141/2/1
f 143/2/1 137/2/1 136/2/1
f 143/2/1 138/2/1 137/2/1
f 143/2/1 140/2/1 139/2/1
f 143/2/1 135/2/1 119/2/1
f 143/2/1 141/2/1 140/2/1
f 143/2/1 119/2/1 77/2/1
f 143/2/1 136/2/1 135/2/1
f 144/2/1 134/2/1 142/2/1
f 144/2/1 142/2/1 143/2/1
f 144/2/1 86/2/1 134/2/1
f 147/1/1 146/1/1 145/1/1
f 148/1/1 146/1/1 147/1/1
f 149/1/1 147/1/1 145/1/1
f 150/1/1 146/1/1 148/1/1
f 151/1/1 149/1/1 145/1/1
f 151/1/1 150/1/1 149/1/1
f 152/1/1 146/1/1 150/1/1
f 152/1/1 150/1/1 151/1/1
f 155/1/1 154/1/1 153/1/1
f 156/1/1 154/1/1 155/1/1
f 157/1/2 158/1/2 159/1/2
f 159/1/2 158/1/2 160/1/2
f 164/2/3 162/2/3 161/2/3
f 165/2/3 162/2/3 164/2/3
f 167/1/3 164/1/3 163/1/3
f 167/1/3 166/1/3 165/1/3
f 167/1/3 165/1/3 164/1/3
f 168/1/3 166/1/3 167/1/3
f 171/2/3 170/2/3 169/2/3
f 172/2/3 170/2/3 171/2/3
f 175/2/3 174/2/3 173/2/3
f 176/2/3 174/2/3 175/2/3
f 179/1/3 178/1/3 177/1/3
f 180/1/3 178/1/3 179/1/3
f 185/1/3 182/1/3 181/1/3
f 186/1/3 182/1/3 185/1/3
f 187/1/3 184/1/3 183/1/3
f 188/1/3 184/1/3 187/1/3
f 191/1/3 190/1/3 189/1/3
f 192/1/3 190/1/3 191/1/3
f 195/1/3 194/1/3 193/1/3
f 196/1/3 194/1/3 195/1/3
f 201/1/3 198/1/3 197/1/3
f 202/1/3 198/1/3 201/1/3
f 203/1/3 200/1/3 199/1/3
f 204/1/3 200/1/3 203/1/3
f 207/1/3 206/1/3 205/1/3
f 208/1/3 206/1/3 207/1/3
f 211/1/3 210/1/3 209/1/3
f 212/1/3 210/1/3 211/1/3
f 217/1/3 214/1/3 213/1/3
f 218/1/3 214/1/3 217/1/3
f 219/1/3 216/1/3 215/1/3
f 220/1/3 216/1/3 219/1/3
f 223/1/3 222/1/3 221/1/3
f 224/1/3 222/1/3 223/1/3
f 227/1/3 226/1/3 225/1/3
f 228/1/3 226/1/3 227/1/3
f 233/1/3 230/1/3 229/1/3
f 234/1/3 230/1/3 233/1/3
f 235/1/3 232/1/3 231/1/3
f 236/1/3 232/1/3 235/1/3
f 239/1/3 238/1/3 237/1/3
f 240/1/3 238/1/3 239/1/3
f 241/1/4 242/1/4 243/1/4
f 243/1/4 242/1/4 244/1/4
f 245/1/4 246/1/4 249/1/4
f 249/1/4 246/1/4 250/1/4
f 247/1/4 248/1/4 251/1/4
f 251/1/4 248/1/4 252/1/4
f 253/1/4 254/1/4 255/1/4
f 255/1/4 254/1/4 256/1/4
f 257/1/4 258/1/4 259/1/4
f 259/1/4 258/1/4 260/1/4
f 261/1/4 262/1/4 265/1/4
f 265/1/4 262/1/4 266/1/4
f 263/1/4 264/1/4 267/1/4
f 267/1/4 264/1/4 268/1/4
f 269/1/4 270/1/4 271/1/4
f 271/1/4 270/1/4 272/1/4
f 273/1/4 274/1/4 275/1/4
f 275/1/4 274/1/4 276/1/4
f 277/1/4 278/1/4 281/1/4
f 281/1/4 278/1/4 282/1/4
f 279/1/4 280/1/4 283/1/4
f 283/1/4 280/1/4 284/1/4
f 285/1/4 286/1/4 287/1/4
f 287/1/4 286/1/4 288/1/4
f 289/2/4 290/2/4 293/2/4
f 293/2/4 290/2/4 294/2/4
f 291/1/4 292/1/4 295/1/4
f 295/1/4 292/1/4 296/1/4
f 297/1/4 298/1/4 301/1/4
f 301/1/4 298/1/4 302/1/4
f 299/1/4 300/1/4 303/1/4
f 303/1/4 300/1/4 304/1/4
f 305/1/4 306/1/4 309/1/4
f 309/1/4 306/1/4 310/1/4
f 307/2/4 308/2/4 311/2/4
f 311/2/4 308/2/4 312/2/4
f 313/2/4 314/2/4 316/2/4
f 316/2/4 314/2/4 317/2/4
f 315/1/4 316/1/4 319/1/4
f 317/1/4 318/1/4 319/1/4
f 316/1/4 317/1/4 319/1/4
f 319/1/4 318/1/4 320/1/4
f 323/1/5 322/1/5 321/1/5
f 324/1/5 322/1/5 323/1/5
f 327/2/5 326/2/5 325/2/5
f 328/2/5 326/2/5 327/2/5
f 331/2/5 330/2/5 329/2/5
f 332/2/5 330/2/5 331/2/5
f 336/2/5 334/2/5 333/2/5
f 337/1/5 336/1/5 335/1/5
f 338/2/5 334/2/5 336/2/5
f 338/1/5 336/1/5 337/1/5
f 340/2/5 334/2/5 338/2/5
f 341/1/5 340/1/5 339/1/5
f 342/2/5 334/2/5 340/2/5
f 342/1/5 340/1/5 341/1/5
f 344/2/5 334/2/5 342/2/5
f 345/1/5 344/1/5 343/1/5
f 346/2/5 334/2/5 344/2/5
f 346/1/5 344/1/5 345/1/5
f 348/2/5 334/2/5 346/2/5
f 349/1/5 348/1/5 347/1/5
f 350/2/5 334/2/5 348/2/5
f 350/1/5 348/1/5 349/1/5
f 351/2/5 334/2/5 350/2/5
f 352/2/5 334/2/5 351/2/5
f 355/1/5 354/1/5 353/1/5
f 356/1/5 354/1/5 355/1/5
f 359/1/5 358/1/5 357/1/5
f 360/1/5 358/1/5 359/1/5
f 363/1/5 362/1/5 361/1/5
f 364/1/5 362/1/5 363/1/5
f 367/1/5 366/1/5 365/1/5
f 368/1/5 366/1/5 367/1/5
f 371/1/5 370/1/5 369/1/5
f 372/1/5 370/1/5 371/1/5
f 375/1/5 374/1/5 373/1/5
f 376/1/5 374/1/5 375/1/5
f 379/1/5 378/1/5 377/1/5
f 380/1/5 378/1/5 379/1/5
f 383/1/5 382/1/5 381/1/5
f 384/1/5 382/1/5 383/1/5
f 387/1/5 386/1/5 385/1/5
f 388/1/5 386/1/5 387/1/5
f 391/1/5 390/1/5 389/1/5
f 392/1/5 390/1/5 391/1/5
f 395/1/5 394/1/5 393/1/5
f 396/1/5 394/1/5 395/1/5
f 399/1/5 398/1/5 397/1/5
f 400/1/5 398/1/5 399/1/5
f 401/2/6 402/2/6 403/2/6
f 403/2/6 402/2/6 404/2/6
f 405/2/6 406/2/6 407/2/6
f 407/2/6 406/2/6 408/2/6
f 409/1/6 410/1/6 411/1/6
f 411/1/6 410/1/6 412/1/6
f 413/1/6 414/1/6 415/1/6
f 415/1/6 414/1/6 416/1/6
f 417/1/6 418/1/6 419/1/6
f 419/1/6 418/1/6 420/1/6
f 421/1/6 422/1/6 423/1/6
f 423/1/6 422/1/6 424/1/6
f 425/1/6 426/1/6 427/1/6
f 427/1/6 426/1/6 428/1/6
f 429/1/6 430/1/6 431/1/6
f 431/1/6 430/1/6 432/1/6
f 433/1/6 434/1/6 435/1/6
f 435/1/6 434/1/6 436/1/6
f 437/1/6 438/1/6 439/1/6
f 439/1/6 438/1/6 440/1/6
f 441/1/6 442/1/6 443/1/6
f 443/1/6 442/1/6 444/1/6
f 445/1/6 446/1/6 447/1/6
f 447/1/6 446/1/6 448/1/6
f 449/1/6 450/1/6 451/1/6
f 451/1/6 450/1/6 452/1/6
f 453/1/6 454/1/6 455/1/6
f 455/1/6 454/1/6 456/1/6
f 457/1/6 458/1/6 459/1/6
f 459/1/6 458/1/6 460/1/6
f 461/1/6 462/1/6 463/1/6
f 463/1/6 462/1/6 464/1/6
f 465/1/6 466/1/6 467/1/6
f 467/1/6 466/1/6 468/1/6
f 469/1/6 470/1/6 471/1/6
f 471/1/6 470/1/6 472/1/6
f 473/2/6 474/2/6 475/2/6
f 475/2/6 474/2/6 476/2/6
f 477/1/6 478/1/6 479/1/6
f 479/1/6 478/1/6 480/1/6
