# MagicaVoxel @ Ephtracy

# group
g toilet

# material
mtllib toilet.mtl
usemtl palette

# normals
vn -1 0 0
vn 1 0 0
vn 0 0 1
vn 0 0 -1
vn 0 -1 0
vn 0 1 0

# texcoords
vt 0.962891 0.5
vt 0.990234 0.5

# verts
v -20 0 9
v -20 0 -9
v -20 20 11
v -20 20 9
v -20 20 -9
v -20 20 -11
v -20 34 11
v -20 34 -11
v -19 34 10
v -19 34 -10
v -19 35 10
v -19 35 -10
v -16 36 1
v -16 36 -1
v -16 37 1
v -16 37 -1
v -15 35 1
v -15 35 -1
v -15 36 2
v -15 36 1
v -15 36 -1
v -15 36 -2
v -15 37 2
v -15 37 1
v -15 37 -1
v -15 37 -2
v -8 8 10
v -8 8 9
v -8 8 -9
v -8 8 -10
v -8 20 10
v -8 20 9
v -8 20 -9
v -8 20 -10
v 8 14 7
v 8 14 -7
v 8 20 7
v 8 20 -7
v -14 35 1
v -14 35 -1
v -14 36 2
v -14 36 1
v -14 36 -1
v -14 36 -2
v -14 37 2
v -14 37 1
v -14 37 -1
v -14 37 -2
v -13 36 1
v -13 36 -1
v -13 37 1
v -13 37 -1
v -9 34 10
v -9 34 -10
v -9 35 10
v -9 35 -10
v -8 20 11
v -8 20 10
v -8 20 -10
v -8 20 -11
v -8 34 11
v -8 34 -11
v -5 14 7
v -5 14 -7
v -5 20 7
v -5 20 -7
v -3 0 9
v -3 0 -9
v -3 8 9
v -3 8 -9
v 11 8 10
v 11 8 -10
v 11 20 10
v 11 20 -10
v -20 20 11
v -20 34 11
v -8 20 11
v -8 34 11
v -19 34 10
v -19 35 10
v -9 34 10
v -9 35 10
v -8 8 10
v -8 20 10
v 11 8 10
v 11 20 10
v -20 0 9
v -20 20 9
v -8 8 9
v -8 20 9
v -3 0 9
v -3 8 9
v -15 36 2
v -15 37 2
v -14 36 2
v -14 37 2
v -16 36 1
v -16 37 1
v -15 35 1
v -15 36 1
v -15 37 1
v -14 35 1
v -14 36 1
v -14 37 1
v -13 36 1
v -13 37 1
v -5 14 -7
v -5 20 -7
v 8 14 -7
v 8 20 -7
v -5 14 7
v -5 20 7
v 8 14 7
v 8 20 7
v -16 36 -1
v -16 37 -1
v -15 35 -1
v -15 36 -1
v -15 37 -1
v -14 35 -1
v -14 36 -1
v -14 37 -1
v -13 36 -1
v -13 37 -1
v -15 36 -2
v -15 37 -2
v -14 36 -2
v -14 37 -2
v -20 0 -9
v -20 20 -9
v -8 8 -9
v -8 20 -9
v -3 0 -9
v -3 8 -9
v -19 34 -10
v -19 35 -10
v -9 34 -10
v -9 35 -10
v -8 8 -10
v -8 20 -10
v 11 8 -10
v 11 20 -10
v -20 20 -11
v -20 34 -11
v -8 20 -11
v -8 34 -11
v -20 0 9
v -3 0 9
v -20 0 -9
v -3 0 -9
v -8 8 10
v 11 8 10
v -8 8 9
v -3 8 9
v -8 8 -9
v -3 8 -9
v -8 8 -10
v 11 8 -10
v -20 20 11
v -8 20 11
v -8 20 10
v -20 20 9
v -8 20 9
v -20 20 -9
v -8 20 -9
v -8 20 -10
v -20 20 -11
v -8 20 -11
v -15 36 2
v -14 36 2
v -16 36 1
v -15 36 1
v -14 36 1
v -13 36 1
v -16 36 -1
v -15 36 -1
v -14 36 -1
v -13 36 -1
v -15 36 -2
v -14 36 -2
v -5 14 7
v 8 14 7
v -5 14 -7
v 8 14 -7
v -8 20 10
v 11 20 10
v -5 20 7
v 8 20 7
v -5 20 -7
v 8 20 -7
v -8 20 -10
v 11 20 -10
v -20 34 11
v -8 34 11
v -19 34 10
v -9 34 10
v -19 34 -10
v -9 34 -10
v -20 34 -11
v -8 34 -11
v -19 35 10
v -9 35 10
v -15 35 1
v -14 35 1
v -15 35 -1
v -14 35 -1
v -19 35 -10
v -9 35 -10
v -15 37 2
v -14 37 2
v -16 37 1
v -15 37 1
v -14 37 1
v -13 37 1
v -16 37 -1
v -15 37 -1
v -14 37 -1
v -13 37 -1
v -15 37 -2
v -14 37 -2

# faces
f 4/1/1 2/1/1 1/1/1
f 5/1/1 2/1/1 4/1/1
f 7/1/1 4/1/1 3/1/1
f 7/1/1 6/1/1 5/1/1
f 7/1/1 5/1/1 4/1/1
f 8/1/1 6/1/1 7/1/1
f 11/1/1 10/1/1 9/1/1
f 12/1/1 10/1/1 11/1/1
f 15/2/1 14/2/1 13/2/1
f 16/2/1 14/2/1 15/2/1
f 20/2/1 18/2/1 17/2/1
f 21/2/1 18/2/1 20/2/1
f 23/2/1 20/2/1 19/2/1
f 24/2/1 20/2/1 23/2/1
f 25/2/1 22/2/1 21/2/1
f 26/2/1 22/2/1 25/2/1
f 31/1/1 28/1/1 27/1/1
f 32/1/1 28/1/1 31/1/1
f 33/1/1 30/1/1 29/1/1
f 34/1/1 30/1/1 33/1/1
f 37/1/1 36/1/1 35/1/1
f 38/1/1 36/1/1 37/1/1
f 39/2/2 40/2/2 42/2/2
f 42/2/2 40/2/2 43/2/2
f 41/2/2 42/2/2 45/2/2
f 45/2/2 42/2/2 46/2/2
f 43/2/2 44/2/2 47/2/2
f 47/2/2 44/2/2 48/2/2
f 49/2/2 50/2/2 51/2/2
f 51/2/2 50/2/2 52/2/2
f 53/1/2 54/1/2 55/1/2
f 55/1/2 54/1/2 56/1/2
f 57/1/2 58/1/2 61/1/2
f 59/1/2 60/1/2 61/1/2
f 58/1/2 59/1/2 61/1/2
f 61/1/2 60/1/2 62/1/2
f 63/1/2 64/1/2 65/1/2
f 65/1/2 64/1/2 66/1/2
f 67/1/2 68/1/2 69/1/2
f 69/1/2 68/1/2 70/1/2
f 71/1/2 72/1/2 73/1/2
f 73/1/2 72/1/2 74/1/2
f 77/1/3 76/1/3 75/1/3
f 78/1/3 76/1/3 77/1/3
f 81/1/3 80/1/3 79/1/3
f 82/1/3 80/1/3 81/1/3
f 85/1/3 84/1/3 83/1/3
f 86/1/3 84/1/3 85/1/3
f 89/1/3 88/1/3 87/1/3
f 90/1/3 88/1/3 89/1/3
f 91/1/3 89/1/3 87/1/3
f 92/1/3 89/1/3 91/1/3
f 95/2/3 94/2/3 93/2/3
f 96/2/3 94/2/3 95/2/3
f 100/2/3 98/2/3 97/2/3
f 101/2/3 98/2/3 100/2/3
f 102/2/3 100/2/3 99/2/3
f 103/2/3 100/2/3 102/2/3
f 105/2/3 104/2/3 103/2/3
f 106/2/3 104/2/3 105/2/3
f 109/1/3 108/1/3 107/1/3
f 110/1/3 108/1/3 109/1/3
f 111/1/4 112/1/4 113/1/4
f 113/1/4 112/1/4 114/1/4
f 115/2/4 116/2/4 118/2/4
f 118/2/4 116/2/4 119/2/4
f 117/2/4 118/2/4 120/2/4
f 120/2/4 118/2/4 121/2/4
f 121/2/4 122/2/4 123/2/4
f 123/2/4 122/2/4 124/2/4
f 125/2/4 126/2/4 127/2/4
f 127/2/4 126/2/4 128/2/4
f 129/1/4 130/1/4 131/1/4
f 131/1/4 130/1/4 132/1/4
f 129/1/4 131/1/4 133/1/4
f 133/1/4 131/1/4 134/1/4
f 135/1/4 136/1/4 137/1/4
f 137/1/4 136/1/4 138/1/4
f 139/1/4 140/1/4 141/1/4
f 141/1/4 140/1/4 142/1/4
f 143/1/4 144/1/4 145/1/4
f 145/1/4 144/1/4 146/1/4
f 149/1/5 148/1/5 147/1/5
f 150/1/5 148/1/5 149/1/5
f 153/1/5 152/1/5 151/1/5
f 154/1/5 152/1/5 153/1/5
f 156/1/5 152/1/5 154/1/5
f 157/1/5 156/1/5 155/1/5
f 158/1/5 152/1/5 156/1/5
f 158/1/5 156/1/5 157/1/5
f 161/1/5 160/1/5 159/1/5
f 162/1/5 161/1/5 159/1/5
f 163/1/5 161/1/5 162/1/5
f 166/1/5 165/1/5 164/1/5
f 167/1/5 166/1/5 164/1/5
f 168/1/5 166/1/5 167/1/5
f 172/2/5 170/2/5 169/2/5
f 173/2/5 170/2/5 172/2/5
f 175/2/5 172/2/5 171/2/5
f 176/2/5 172/2/5 175/2/5
f 177/2/5 174/2/5 173/2/5
f 178/2/5 174/2/5 177/2/5
f 179/2/5 177/2/5 176/2/5
f 180/2/5 177/2/5 179/2/5
f 181/1/6 182/1/6 183/1/6
f 183/1/6 182/1/6 184/1/6
f 185/1/6 186/1/6 187/1/6
f 187/1/6 186/1/6 188/1/6
f 185/1/6 187/1/6 189/1/6
f 188/1/6 186/1/6 190/1/6
f 185/1/6 189/1/6 191/1/6
f 189/1/6 190/1/6 191/1/6
f 190/1/6 186/1/6 192/1/6
f 191/1/6 190/1/6 192/1/6
f 193/1/6 194/1/6 195/1/6
f 195/1/6 194/1/6 196/1/6
f 193/1/6 195/1/6 197/1/6
f 196/1/6 194/1/6 198/1/6
f 193/1/6 197/1/6 199/1/6
f 197/1/6 198/1/6 199/1/6
f 198/1/6 194/1/6 200/1/6
f 199/1/6 198/1/6 200/1/6
f 201/1/6 202/1/6 203/1/6
f 203/1/6 202/1/6 204/1/6
f 201/1/6 203/1/6 205/1/6
f 204/1/6 202/1/6 206/1/6
f 201/1/6 205/1/6 207/1/6
f 205/1/6 206/1/6 207/1/6
f 206/1/6 202/1/6 208/1/6
f 207/1/6 206/1/6 208/1/6
f 209/2/6 210/2/6 212/2/6
f 212/2/6 210/2/6 213/2/6
f 211/2/6 212/2/6 215/2/6
f 213/2/6 214/2/6 215/2/6
f 212/2/6 213/2/6 215/2/6
f 215/2/6 214/2/6 216/2/6
f 216/2/6 214/2/6 217/2/6
f 217/2/6 214/2/6 218/2/6
f 216/2/6 217/2/6 219/2/6
f 219/2/6 217/2/6 220/2/6
