# MagicaVoxel @ Ephtracy

# group
g floorlamp

# material
mtllib floorlamp.mtl
usemtl palette

# normals
vn -1 0 0
vn 1 0 0
vn 0 0 1
vn 0 0 -1
vn 0 -1 0
vn 0 1 0

# texcoords
vt 0.849609 0.5
vt 0.958984 0.5
vt 0.990234 0.5

# verts
v -9 0 7
v -9 0 -7
v -9 1 7
v -9 1 -7
v -9 25 6
v -9 25 -6
v -9 26 7
v -9 26 6
v -9 26 -6
v -9 26 -7
v -9 40 7
v -9 40 -7
v -3 1 6
v -3 1 -6
v -3 2 6
v -3 2 -6
v -1 2 1
v -1 2 -1
v -1 25 1
v -1 25 -1
v 1 2 1
v 1 2 -1
v 1 25 1
v 1 25 -1
v 3 1 6
v 3 1 -6
v 3 2 6
v 3 2 -6
v 9 0 7
v 9 0 -7
v 9 1 7
v 9 1 -7
v 9 25 6
v 9 25 -6
v 9 26 7
v 9 26 6
v 9 26 -6
v 9 26 -7
v 9 40 7
v 9 40 -7
v -9 0 7
v -9 1 7
v -9 26 7
v -9 40 7
v 9 0 7
v 9 1 7
v 9 26 7
v 9 40 7
v -9 25 6
v -9 26 6
v -3 1 6
v -3 2 6
v 3 1 6
v 3 2 6
v 9 25 6
v 9 26 6
v -1 2 1
v -1 25 1
v 1 2 1
v 1 25 1
v -1 2 -1
v -1 25 -1
v 1 2 -1
v 1 25 -1
v -9 25 -6
v -9 26 -6
v -3 1 -6
v -3 2 -6
v 3 1 -6
v 3 2 -6
v 9 25 -6
v 9 26 -6
v -9 0 -7
v -9 1 -7
v -9 26 -7
v -9 40 -7
v 9 0 -7
v 9 1 -7
v 9 26 -7
v 9 40 -7
v -9 0 7
v 9 0 7
v -9 0 -7
v 9 0 -7
v -9 25 6
v 9 25 6
v -1 25 1
v 1 25 1
v -1 25 -1
v 1 25 -1
v -9 25 -6
v 9 25 -6
v -9 26 7
v 9 26 7
v -9 26 6
v 9 26 6
v -9 26 -6
v 9 26 -6
v -9 26 -7
v 9 26 -7
v -9 1 7
v 9 1 7
v -3 1 6
v 3 1 6
v -3 1 -6
v 3 1 -6
v -9 1 -7
v 9 1 -7
v -3 2 6
v 3 2 6
v -1 2 1
v 1 2 1
v -1 2 -1
v 1 2 -1
v -3 2 -6
v 3 2 -6
v -9 40 7
v 9 40 7
v -9 40 -7
v 9 40 -7

# faces
f 3/3/1 2/3/1 1/3/1
f 4/3/1 2/3/1 3/3/1
f 8/2/1 6/2/1 5/2/1
f 9/2/1 6/2/1 8/2/1
f 11/2/1 8/2/1 7/2/1
f 11/2/1 10/2/1 9/2/1
f 11/2/1 9/2/1 8/2/1
f 12/2/1 10/2/1 11/2/1
f 15/1/1 14/1/1 13/1/1
f 16/1/1 14/1/1 15/1/1
f 19/3/1 18/3/1 17/3/1
f 20/3/1 18/3/1 19/3/1
f 21/3/2 22/3/2 23/3/2
f 23/3/2 22/3/2 24/3/2
f 25/1/2 26/1/2 27/1/2
f 27/1/2 26/1/2 28/1/2
f 29/3/2 30/3/2 31/3/2
f 31/3/2 30/3/2 32/3/2
f 33/2/2 34/2/2 36/2/2
f 36/2/2 34/2/2 37/2/2
f 35/2/2 36/2/2 39/2/2
f 37/2/2 38/2/2 39/2/2
f 36/2/2 37/2/2 39/2/2
f 39/2/2 38/2/2 40/2/2
f 45/3/3 42/3/3 41/3/3
f 46/3/3 42/3/3 45/3/3
f 47/2/3 44/2/3 43/2/3
f 48/2/3 44/2/3 47/2/3
f 53/1/3 52/1/3 51/1/3
f 54/1/3 52/1/3 53/1/3
f 55/2/3 50/2/3 49/2/3
f 56/2/3 50/2/3 55/2/3
f 59/3/3 58/3/3 57/3/3
f 60/3/3 58/3/3 59/3/3
f 61/3/4 62/3/4 63/3/4
f 63/3/4 62/3/4 64/3/4
f 67/1/4 68/1/4 69/1/4
f 69/1/4 68/1/4 70/1/4
f 65/2/4 66/2/4 71/2/4
f 71/2/4 66/2/4 72/2/4
f 73/3/4 74/3/4 77/3/4
f 77/3/4 74/3/4 78/3/4
f 75/2/4 76/2/4 79/2/4
f 79/2/4 76/2/4 80/2/4
f 83/3/5 82/3/5 81/3/5
f 84/3/5 82/3/5 83/3/5
f 87/2/5 86/2/5 85/2/5
f 88/2/5 86/2/5 87/2/5
f 89/2/5 87/2/5 85/2/5
f 90/2/5 86/2/5 88/2/5
f 91/2/5 89/2/5 85/2/5
f 91/2/5 90/2/5 89/2/5
f 92/2/5 86/2/5 90/2/5
f 92/2/5 90/2/5 91/2/5
f 95/2/5 94/2/5 93/2/5
f 96/2/5 94/2/5 95/2/5
f 99/2/5 98/2/5 97/2/5
f 100/2/5 98/2/5 99/2/5
f 101/3/6 102/3/6 103/3/6
f 103/3/6 102/3/6 104/3/6
f 101/3/6 103/3/6 105/3/6
f 104/3/6 102/3/6 106/3/6
f 101/3/6 105/3/6 107/3/6
f 105/3/6 106/3/6 107/3/6
f 106/3/6 102/3/6 108/3/6
f 107/3/6 106/3/6 108/3/6
f 109/1/6 110/1/6 111/1/6
f 111/1/6 110/1/6 112/1/6
f 109/1/6 111/1/6 113/1/6
f 112/1/6 110/1/6 114/1/6
f 109/1/6 113/1/6 115/1/6
f 113/1/6 114/1/6 115/1/6
f 114/1/6 110/1/6 116/1/6
f 115/1/6 114/1/6 116/1/6
f 117/2/6 118/2/6 119/2/6
f 119/2/6 118/2/6 120/2/6
