# MagicaVoxel @ Ephtracy

# group
g drawer

# material
mtllib drawer.mtl
usemtl palette

# normals
vn -1 0 0
vn 1 0 0
vn 0 0 1
vn 0 0 -1
vn 0 -1 0
vn 0 1 0

# texcoords
vt 0.0878906 0.5
vt 0.255859 0.5
vt 0.365234 0.5

# verts
v -20 0 20
v -20 0 -20
v -20 38 20
v -20 38 -20
v -20 40 20
v -20 40 -20
v 18 0 20
v 18 0 -20
v 18 2 19
v 18 2 -19
v 18 12 19
v 18 12 -19
v 18 14 19
v 18 14 -19
v 18 24 19
v 18 24 -19
v 18 26 19
v 18 26 1
v 18 26 -1
v 18 26 -19
v 18 36 19
v 18 36 1
v 18 36 -1
v 18 36 -19
v 18 38 20
v 18 38 -20
v 19 2 19
v 19 2 -19
v 19 6 14
v 19 6 6
v 19 6 -6
v 19 6 -14
v 19 8 14
v 19 8 6
v 19 8 -6
v 19 8 -14
v 19 12 19
v 19 12 -19
v 19 14 19
v 19 14 -19
v 19 18 14
v 19 18 6
v 19 18 -6
v 19 18 -14
v 19 20 14
v 19 20 6
v 19 20 -6
v 19 20 -14
v 19 24 19
v 19 24 -19
v 19 26 19
v 19 26 1
v 19 26 -1
v 19 26 -19
v 19 30 14
v 19 30 6
v 19 30 -6
v 19 30 -14
v 19 32 14
v 19 32 6
v 19 32 -6
v 19 32 -14
v 19 36 19
v 19 36 1
v 19 36 -1
v 19 36 -19
v 19 38 20
v 19 38 -20
v 19 40 20
v 19 40 -20
v 20 6 14
v 20 6 6
v 20 6 -6
v 20 6 -14
v 20 8 14
v 20 8 6
v 20 8 -6
v 20 8 -14
v 20 18 14
v 20 18 6
v 20 18 -6
v 20 18 -14
v 20 20 14
v 20 20 6
v 20 20 -6
v 20 20 -14
v 20 30 14
v 20 30 6
v 20 30 -6
v 20 30 -14
v 20 32 14
v 20 32 6
v 20 32 -6
v 20 32 -14
v -20 0 20
v -20 38 20
v -20 40 20
v 18 0 20
v 18 38 20
v 19 38 20
v 19 40 20
v 18 2 19
v 18 12 19
v 18 14 19
v 18 24 19
v 18 26 19
v 18 36 19
v 19 2 19
v 19 12 19
v 19 14 19
v 19 24 19
v 19 26 19
v 19 36 19
v 19 6 14
v 19 8 14
v 19 18 14
v 19 20 14
v 19 30 14
v 19 32 14
v 20 6 14
v 20 8 14
v 20 18 14
v 20 20 14
v 20 30 14
v 20 32 14
v 18 26 -1
v 18 36 -1
v 19 26 -1
v 19 36 -1
v 19 6 -6
v 19 8 -6
v 19 18 -6
v 19 20 -6
v 19 30 -6
v 19 32 -6
v 20 6 -6
v 20 8 -6
v 20 18 -6
v 20 20 -6
v 20 30 -6
v 20 32 -6
v 19 6 6
v 19 8 6
v 19 18 6
v 19 20 6
v 19 30 6
v 19 32 6
v 20 6 6
v 20 8 6
v 20 18 6
v 20 20 6
v 20 30 6
v 20 32 6
v 18 26 1
v 18 36 1
v 19 26 1
v 19 36 1
v 19 6 -14
v 19 8 -14
v 19 18 -14
v 19 20 -14
v 19 30 -14
v 19 32 -14
v 20 6 -14
v 20 8 -14
v 20 18 -14
v 20 20 -14
v 20 30 -14
v 20 32 -14
v 18 2 -19
v 18 12 -19
v 18 14 -19
v 18 24 -19
v 18 26 -19
v 18 36 -19
v 19 2 -19
v 19 12 -19
v 19 14 -19
v 19 24 -19
v 19 26 -19
v 19 36 -19
v -20 0 -20
v -20 38 -20
v -20 40 -20
v 18 0 -20
v 18 38 -20
v 19 38 -20
v 19 40 -20
v -20 0 20
v 18 0 20
v -20 0 -20
v 18 0 -20
v 18 2 19
v 19 2 19
v 18 2 -19
v 19 2 -19
v 19 6 14
v 20 6 14
v 19 6 6
v 20 6 6
v 19 6 -6
v 20 6 -6
v 19 6 -14
v 20 6 -14
v 18 14 19
v 19 14 19
v 18 14 -19
v 19 14 -19
v 19 18 14
v 20 18 14
v 19 18 6
v 20 18 6
v 19 18 -6
v 20 18 -6
v 19 18 -14
v 20 18 -14
v 18 26 19
v 19 26 19
v 18 26 1
v 19 26 1
v 18 26 -1
v 19 26 -1
v 18 26 -19
v 19 26 -19
v 19 30 14
v 20 30 14
v 19 30 6
v 20 30 6
v 19 30 -6
v 20 30 -6
v 19 30 -14
v 20 30 -14
v 18 38 20
v 19 38 20
v 18 38 -20
v 19 38 -20
v 19 8 14
v 20 8 14
v 19 8 6
v 20 8 6
v 19 8 -6
v 20 8 -6
v 19 8 -14
v 20 8 -14
v 18 12 19
v 19 12 19
v 18 12 -19
v 19 12 -19
v 19 20 14
v 20 20 14
v 19 20 6
v 20 20 6
v 19 20 -6
v 20 20 -6
v 19 20 -14
v 20 20 -14
v 18 24 19
v 19 24 19
v 18 24 -19
v 19 24 -19
v 19 32 14
v 20 32 14
v 19 32 6
v 20 32 6
v 19 32 -6
v 20 32 -6
v 19 32 -14
v 20 32 -14
v 18 36 19
v 19 36 19
v 18 36 1
v 19 36 1
v 18 36 -1
v 19 36 -1
v 18 36 -19
v 19 36 -19
v -20 40 20
v 19 40 20
v -20 40 -20
v 19 40 -20

# faces
f 3/1/1 2/1/1 1/1/1
f 4/1/1 2/1/1 3/1/1
f 5/2/1 4/2/1 3/2/1
f 6/2/1 4/2/1 5/2/1
f 7/1/2 8/1/2 9/1/2
f 9/1/2 8/1/2 10/1/2
f 7/1/2 9/1/2 11/1/2
f 10/1/2 8/1/2 12/1/2
f 7/1/2 11/1/2 13/1/2
f 11/1/2 12/1/2 13/1/2
f 12/1/2 8/1/2 14/1/2
f 13/1/2 12/1/2 14/1/2
f 7/1/2 13/1/2 15/1/2
f 14/1/2 8/1/2 16/1/2
f 7/1/2 15/1/2 17/1/2
f 15/1/2 16/1/2 17/1/2
f 17/1/2 16/1/2 18/1/2
f 18/1/2 16/1/2 19/1/2
f 16/1/2 8/1/2 20/1/2
f 19/1/2 16/1/2 20/1/2
f 7/1/2 17/1/2 21/1/2
f 18/1/2 19/1/2 22/1/2
f 22/1/2 19/1/2 23/1/2
f 20/1/2 8/1/2 24/1/2
f 7/1/2 21/1/2 25/1/2
f 23/1/2 24/1/2 25/1/2
f 22/1/2 23/1/2 25/1/2
f 21/1/2 22/1/2 25/1/2
f 24/1/2 8/1/2 26/1/2
f 25/1/2 24/1/2 26/1/2
f 27/3/2 28/3/2 29/3/2
f 29/3/2 28/3/2 30/3/2
f 30/3/2 28/3/2 31/3/2
f 31/3/2 28/3/2 32/3/2
f 27/3/2 29/3/2 33/3/2
f 30/3/2 31/3/2 34/3/2
f 34/3/2 31/3/2 35/3/2
f 32/3/2 28/3/2 36/3/2
f 34/3/2 35/3/2 37/3/2
f 35/3/2 36/3/2 37/3/2
f 27/3/2 33/3/2 37/3/2
f 33/3/2 34/3/2 37/3/2
f 36/3/2 28/3/2 38/3/2
f 37/3/2 36/3/2 38/3/2
f 39/3/2 40/3/2 41/3/2
f 41/3/2 40/3/2 42/3/2
f 42/3/2 40/3/2 43/3/2
f 43/3/2 40/3/2 44/3/2
f 39/3/2 41/3/2 45/3/2
f 42/3/2 43/3/2 46/3/2
f 46/3/2 43/3/2 47/3/2
f 44/3/2 40/3/2 48/3/2
f 46/3/2 47/3/2 49/3/2
f 47/3/2 48/3/2 49/3/2
f 39/3/2 45/3/2 49/3/2
f 45/3/2 46/3/2 49/3/2
f 48/3/2 40/3/2 50/3/2
f 49/3/2 48/3/2 50/3/2
f 51/3/2 52/3/2 55/3/2
f 55/3/2 52/3/2 56/3/2
f 53/3/2 54/3/2 57/3/2
f 57/3/2 54/3/2 58/3/2
f 51/3/2 55/3/2 59/3/2
f 56/3/2 52/3/2 60/3/2
f 53/3/2 57/3/2 61/3/2
f 58/3/2 54/3/2 62/3/2
f 51/3/2 59/3/2 63/3/2
f 59/3/2 60/3/2 63/3/2
f 60/3/2 52/3/2 64/3/2
f 63/3/2 60/3/2 64/3/2
f 61/3/2 62/3/2 65/3/2
f 53/3/2 61/3/2 65/3/2
f 62/3/2 54/3/2 66/3/2
f 65/3/2 62/3/2 66/3/2
f 67/2/2 68/2/2 69/2/2
f 69/2/2 68/2/2 70/2/2
f 71/2/2 72/2/2 75/2/2
f 75/2/2 72/2/2 76/2/2
f 73/2/2 74/2/2 77/2/2
f 77/2/2 74/2/2 78/2/2
f 79/2/2 80/2/2 83/2/2
f 83/2/2 80/2/2 84/2/2
f 81/2/2 82/2/2 85/2/2
f 85/2/2 82/2/2 86/2/2
f 87/2/2 88/2/2 91/2/2
f 91/2/2 88/2/2 92/2/2
f 89/2/2 90/2/2 93/2/2
f 93/2/2 90/2/2 94/2/2
f 98/1/3 96/1/3 95/1/3
f 99/2/3 97/2/3 96/2/3
f 99/1/3 96/1/3 98/1/3
f 100/2/3 97/2/3 99/2/3
f 101/2/3 97/2/3 100/2/3
f 108/3/3 103/3/3 102/3/3
f 109/3/3 103/3/3 108/3/3
f 110/3/3 105/3/3 104/3/3
f 111/3/3 105/3/3 110/3/3
f 112/3/3 107/3/3 106/3/3
f 113/3/3 107/3/3 112/3/3
f 120/2/3 115/2/3 114/2/3
f 121/2/3 115/2/3 120/2/3
f 122/2/3 117/2/3 116/2/3
f 123/2/3 117/2/3 122/2/3
f 124/2/3 119/2/3 118/2/3
f 125/2/3 119/2/3 124/2/3
f 128/3/3 127/3/3 126/3/3
f 129/3/3 127/3/3 128/3/3
f 136/2/3 131/2/3 130/2/3
f 137/2/3 131/2/3 136/2/3
f 138/2/3 133/2/3 132/2/3
f 139/2/3 133/2/3 138/2/3
f 140/2/3 135/2/3 134/2/3
f 141/2/3 135/2/3 140/2/3
f 142/2/4 143/2/4 148/2/4
f 148/2/4 143/2/4 149/2/4
f 144/2/4 145/2/4 150/2/4
f 150/2/4 145/2/4 151/2/4
f 146/2/4 147/2/4 152/2/4
f 152/2/4 147/2/4 153/2/4
f 154/3/4 155/3/4 156/3/4
f 156/3/4 155/3/4 157/3/4
f 158/2/4 159/2/4 164/2/4
f 164/2/4 159/2/4 165/2/4
f 160/2/4 161/2/4 166/2/4
f 166/2/4 161/2/4 167/2/4
f 162/2/4 163/2/4 168/2/4
f 168/2/4 163/2/4 169/2/4
f 170/3/4 171/3/4 176/3/4
f 176/3/4 171/3/4 177/3/4
f 172/3/4 173/3/4 178/3/4
f 178/3/4 173/3/4 179/3/4
f 174/3/4 175/3/4 180/3/4
f 180/3/4 175/3/4 181/3/4
f 182/1/4 183/1/4 185/1/4
f 183/2/4 184/2/4 186/2/4
f 185/1/4 183/1/4 186/1/4
f 186/2/4 184/2/4 187/2/4
f 187/2/4 184/2/4 188/2/4
f 191/1/5 190/1/5 189/1/5
f 192/1/5 190/1/5 191/1/5
f 195/3/5 194/3/5 193/3/5
f 196/3/5 194/3/5 195/3/5
f 199/2/5 198/2/5 197/2/5
f 200/2/5 198/2/5 199/2/5
f 203/2/5 202/2/5 201/2/5
f 204/2/5 202/2/5 203/2/5
f 207/3/5 206/3/5 205/3/5
f 208/3/5 206/3/5 207/3/5
f 211/2/5 210/2/5 209/2/5
f 212/2/5 210/2/5 211/2/5
f 215/2/5 214/2/5 213/2/5
f 216/2/5 214/2/5 215/2/5
f 219/3/5 218/3/5 217/3/5
f 220/3/5 218/3/5 219/3/5
f 223/3/5 222/3/5 221/3/5
f 224/3/5 222/3/5 223/3/5
f 227/2/5 226/2/5 225/2/5
f 228/2/5 226/2/5 227/2/5
f 231/2/5 230/2/5 229/2/5
f 232/2/5 230/2/5 231/2/5
f 235/2/5 234/2/5 233/2/5
f 236/2/5 234/2/5 235/2/5
f 237/2/6 238/2/6 239/2/6
f 239/2/6 238/2/6 240/2/6
f 241/2/6 242/2/6 243/2/6
f 243/2/6 242/2/6 244/2/6
f 245/3/6 246/3/6 247/3/6
f 247/3/6 246/3/6 248/3/6
f 249/2/6 250/2/6 251/2/6
f 251/2/6 250/2/6 252/2/6
f 253/2/6 254/2/6 255/2/6
f 255/2/6 254/2/6 256/2/6
f 257/3/6 258/3/6 259/3/6
f 259/3/6 258/3/6 260/3/6
f 261/2/6 262/2/6 263/2/6
f 263/2/6 262/2/6 264/2/6
f 265/2/6 266/2/6 267/2/6
f 267/2/6 266/2/6 268/2/6
f 269/3/6 270/3/6 271/3/6
f 271/3/6 270/3/6 272/3/6
f 273/3/6 274/3/6 275/3/6
f 275/3/6 274/3/6 276/3/6
f 277/2/6 278/2/6 279/2/6
f 279/2/6 278/2/6 280/2/6
