# MagicaVoxel @ Ephtracy

# group
g Surveillance Camera

# material
mtllib Surveillance Camera.mtl
usemtl palette

# normals
vn -1 0 0
vn 1 0 0
vn 0 0 1
vn 0 0 -1
vn 0 -1 0
vn 0 1 0

# texcoords
vt 0.841797 0.5
vt 0.978516 0.5
vt 0.986328 0.5
vt 0.990234 0.5
vt 0.994141 0.5

# verts
v -4 14 7
v -4 14 -11
v -4 21 -18
v -4 21 -19
v -4 25 7
v -4 25 -11
v -4 28 -18
v -4 28 -19
v -3 18 -11
v -3 18 -12
v -3 19 10
v -3 19 7
v -3 23 -11
v -3 23 -12
v -3 25 10
v -3 25 7
v -2 19 -12
v -2 19 -16
v -2 22 -12
v -2 22 -14
v -2 23 -16
v -2 23 -18
v -2 26 -14
v -2 26 -18
v 2 20 10
v 2 20 9
v 2 24 10
v 2 24 9
v 2 25 7
v 2 25 5
v 2 27 7
v 2 27 5
v -2 20 10
v -2 20 9
v -2 23 9
v -2 24 10
v -2 24 9
v 2 19 -12
v 2 19 -16
v 2 22 -12
v 2 22 -14
v 2 23 -16
v 2 23 -18
v 2 26 -14
v 2 26 -18
v 3 18 -11
v 3 18 -12
v 3 19 10
v 3 19 7
v 3 23 -11
v 3 23 -12
v 3 25 10
v 3 25 7
v 4 14 7
v 4 14 -11
v 4 21 -18
v 4 21 -19
v 4 25 7
v 4 25 5
v 4 25 -11
v 4 27 7
v 4 27 5
v 4 28 -18
v 4 28 -19
v -3 19 10
v -3 25 10
v -2 20 10
v -2 24 10
v 2 20 10
v 2 24 10
v 3 19 10
v 3 25 10
v -2 20 9
v -2 23 9
v -2 24 9
v -1 23 9
v -1 24 9
v 2 20 9
v 2 24 9
v -4 14 7
v -4 25 7
v -3 19 7
v -3 25 7
v 2 25 7
v 2 27 7
v 3 19 7
v 3 25 7
v 4 14 7
v 4 25 7
v 4 27 7
v -2 22 -14
v -2 26 -14
v 2 22 -14
v 2 26 -14
v -4 21 -18
v -4 28 -18
v -2 23 -18
v -2 26 -18
v 2 23 -18
v 2 26 -18
v 4 21 -18
v 4 28 -18
v 2 25 5
v 2 27 5
v 4 25 5
v 4 27 5
v -4 14 -11
v -4 25 -11
v -3 18 -11
v -3 23 -11
v 3 18 -11
v 3 23 -11
v 4 14 -11
v 4 25 -11
v -3 18 -12
v -3 23 -12
v -2 19 -12
v -2 22 -12
v 2 19 -12
v 2 22 -12
v 3 18 -12
v 3 23 -12
v -2 19 -16
v -2 23 -16
v 2 19 -16
v 2 23 -16
v -4 21 -19
v -4 28 -19
v 4 21 -19
v 4 28 -19
v -4 14 7
v 4 14 7
v -4 14 -11
v 4 14 -11
v -3 18 -11
v 3 18 -11
v -3 18 -12
v 3 18 -12
v -3 19 10
v 3 19 10
v -3 19 7
v 3 19 7
v -2 19 -12
v 2 19 -12
v -2 19 -16
v 2 19 -16
v -4 21 -18
v 4 21 -18
v -4 21 -19
v 4 21 -19
v -2 23 -16
v 2 23 -16
v -2 23 -18
v 2 23 -18
v -2 24 10
v 2 24 10
v -2 24 9
v -1 24 9
v 2 24 9
v -2 20 10
v 2 20 10
v -2 20 9
v 2 20 9
v -2 22 -12
v 2 22 -12
v -2 22 -14
v 2 22 -14
v -3 23 -11
v 3 23 -11
v -3 23 -12
v 3 23 -12
v -3 25 10
v 3 25 10
v -4 25 7
v -3 25 7
v 2 25 7
v 3 25 7
v 2 25 5
v 4 25 5
v -4 25 -11
v 4 25 -11
v -2 26 -14
v 2 26 -14
v -2 26 -18
v 2 26 -18
v 2 27 7
v 4 27 7
v 2 27 5
v 4 27 5
v -4 28 -18
v 4 28 -18
v -4 28 -19
v 4 28 -19

# faces
f 5/3/1 2/3/1 1/3/1
f 6/3/1 2/3/1 5/3/1
f 7/4/1 4/4/1 3/4/1
f 8/4/1 4/4/1 7/4/1
f 13/4/1 10/4/1 9/4/1
f 14/4/1 10/4/1 13/4/1
f 15/4/1 12/4/1 11/4/1
f 16/4/1 12/4/1 15/4/1
f 19/4/1 18/4/1 17/4/1
f 20/4/1 18/4/1 19/4/1
f 21/4/1 18/4/1 20/4/1
f 23/4/1 21/4/1 20/4/1
f 23/4/1 22/4/1 21/4/1
f 24/4/1 22/4/1 23/4/1
f 27/4/1 26/4/1 25/4/1
f 28/4/1 26/4/1 27/4/1
f 31/1/1 30/1/1 29/1/1
f 32/1/1 30/1/1 31/1/1
f 33/4/2 34/4/2 35/4/2
f 33/4/2 35/4/2 36/4/2
f 36/4/2 35/4/2 37/4/2
f 38/4/2 39/4/2 40/4/2
f 40/4/2 39/4/2 41/4/2
f 41/4/2 39/4/2 42/4/2
f 41/4/2 42/4/2 44/4/2
f 42/4/2 43/4/2 44/4/2
f 44/4/2 43/4/2 45/4/2
f 46/4/2 47/4/2 50/4/2
f 50/4/2 47/4/2 51/4/2
f 48/4/2 49/4/2 52/4/2
f 52/4/2 49/4/2 53/4/2
f 54/3/2 55/3/2 58/3/2
f 58/3/2 55/3/2 59/3/2
f 59/3/2 55/3/2 60/3/2
f 58/1/2 59/1/2 61/1/2
f 61/1/2 59/1/2 62/1/2
f 56/4/2 57/4/2 63/4/2
f 63/4/2 57/4/2 64/4/2
f 67/4/3 66/4/3 65/4/3
f 68/4/3 66/4/3 67/4/3
f 69/4/3 67/4/3 65/4/3
f 70/4/3 66/4/3 68/4/3
f 71/4/3 69/4/3 65/4/3
f 71/4/3 70/4/3 69/4/3
f 72/4/3 66/4/3 70/4/3
f 72/4/3 70/4/3 71/4/3
f 76/5/3 74/5/3 73/5/3
f 76/2/3 75/2/3 74/2/3
f 77/2/3 75/2/3 76/2/3
f 78/5/3 76/5/3 73/5/3
f 78/5/3 77/5/3 76/5/3
f 79/5/3 77/5/3 78/5/3
f 82/3/3 81/3/3 80/3/3
f 83/3/3 81/3/3 82/3/3
f 86/3/3 82/3/3 80/3/3
f 87/1/3 85/1/3 84/1/3
f 88/3/3 86/3/3 80/3/3
f 88/3/3 87/3/3 86/3/3
f 89/1/3 85/1/3 87/1/3
f 89/3/3 87/3/3 88/3/3
f 90/1/3 85/1/3 89/1/3
f 93/4/3 92/4/3 91/4/3
f 94/4/3 92/4/3 93/4/3
f 97/4/3 96/4/3 95/4/3
f 98/4/3 96/4/3 97/4/3
f 99/4/3 97/4/3 95/4/3
f 100/4/3 96/4/3 98/4/3
f 101/4/3 99/4/3 95/4/3
f 101/4/3 100/4/3 99/4/3
f 102/4/3 96/4/3 100/4/3
f 102/4/3 100/4/3 101/4/3
f 103/1/4 104/1/4 105/1/4
f 105/1/4 104/1/4 106/1/4
f 107/3/4 108/3/4 109/3/4
f 109/3/4 108/3/4 110/3/4
f 107/3/4 109/3/4 111/3/4
f 110/3/4 108/3/4 112/3/4
f 107/3/4 111/3/4 113/3/4
f 111/3/4 112/3/4 113/3/4
f 112/3/4 108/3/4 114/3/4
f 113/3/4 112/3/4 114/3/4
f 115/4/4 116/4/4 117/4/4
f 117/4/4 116/4/4 118/4/4
f 115/4/4 117/4/4 119/4/4
f 118/4/4 116/4/4 120/4/4
f 115/4/4 119/4/4 121/4/4
f 119/4/4 120/4/4 121/4/4
f 120/4/4 116/4/4 122/4/4
f 121/4/4 120/4/4 122/4/4
f 123/4/4 124/4/4 125/4/4
f 125/4/4 124/4/4 126/4/4
f 127/4/4 128/4/4 129/4/4
f 129/4/4 128/4/4 130/4/4
f 133/3/5 132/3/5 131/3/5
f 134/3/5 132/3/5 133/3/5
f 137/4/5 136/4/5 135/4/5
f 138/4/5 136/4/5 137/4/5
f 141/4/5 140/4/5 139/4/5
f 142/4/5 140/4/5 141/4/5
f 145/4/5 144/4/5 143/4/5
f 146/4/5 144/4/5 145/4/5
f 149/4/5 148/4/5 147/4/5
f 150/4/5 148/4/5 149/4/5
f 153/4/5 152/4/5 151/4/5
f 154/4/5 152/4/5 153/4/5
f 157/4/5 156/4/5 155/4/5
f 158/4/5 156/4/5 157/4/5
f 159/4/5 156/4/5 158/4/5
f 160/4/6 161/4/6 162/4/6
f 162/4/6 161/4/6 163/4/6
f 164/4/6 165/4/6 166/4/6
f 166/4/6 165/4/6 167/4/6
f 168/4/6 169/4/6 170/4/6
f 170/4/6 169/4/6 171/4/6
f 172/4/6 173/4/6 175/4/6
f 175/4/6 173/4/6 176/4/6
f 176/4/6 173/4/6 177/4/6
f 174/3/6 175/3/6 178/3/6
f 175/3/6 176/3/6 178/3/6
f 174/3/6 178/3/6 180/3/6
f 178/3/6 179/3/6 180/3/6
f 180/3/6 179/3/6 181/3/6
f 182/4/6 183/4/6 184/4/6
f 184/4/6 183/4/6 185/4/6
f 186/1/6 187/1/6 188/1/6
f 188/1/6 187/1/6 189/1/6
f 190/4/6 191/4/6 192/4/6
f 192/4/6 191/4/6 193/4/6
