# MagicaVoxel @ Ephtracy

# group
g wardrobe

# material
mtllib wardrobe.mtl
usemtl palette

# normals
vn -1 0 0
vn 1 0 0
vn 0 0 1
vn 0 0 -1
vn 0 -1 0
vn 0 1 0

# texcoords
vt 0.0878906 0.5
vt 0.369141 0.5

# verts
v -20 0 20
v -20 0 -20
v -20 80 20
v -20 80 -20
v 17 0 20
v 17 0 -20
v 17 2 18
v 17 2 -18
v 17 78 18
v 17 78 -18
v 17 80 20
v 17 80 -20
v 19 2 18
v 19 2 -18
v 19 35 -14
v 19 35 -16
v 19 41 -14
v 19 41 -16
v 19 78 18
v 19 78 -18
v 20 35 -14
v 20 35 -16
v 20 41 -14
v 20 41 -16
v -20 0 20
v -20 80 20
v 17 0 20
v 17 80 20
v 17 2 18
v 17 78 18
v 19 2 18
v 19 78 18
v 19 35 -14
v 19 41 -14
v 20 35 -14
v 20 41 -14
v 19 35 -16
v 19 41 -16
v 20 35 -16
v 20 41 -16
v 17 2 -18
v 17 78 -18
v 19 2 -18
v 19 78 -18
v -20 0 -20
v -20 80 -20
v 17 0 -20
v 17 80 -20
v -20 0 20
v 17 0 20
v -20 0 -20
v 17 0 -20
v 17 2 18
v 19 2 18
v 17 2 -18
v 19 2 -18
v 19 35 -14
v 20 35 -14
v 19 35 -16
v 20 35 -16
v 19 41 -14
v 20 41 -14
v 19 41 -16
v 20 41 -16
v 17 78 18
v 19 78 18
v 17 78 -18
v 19 78 -18
v -20 80 20
v 17 80 20
v -20 80 -20
v 17 80 -20

# faces
f 3/1/1 2/1/1 1/1/1
f 4/1/1 2/1/1 3/1/1
f 5/1/2 6/1/2 7/1/2
f 7/1/2 6/1/2 8/1/2
f 5/1/2 7/1/2 9/1/2
f 8/1/2 6/1/2 10/1/2
f 5/1/2 9/1/2 11/1/2
f 9/1/2 10/1/2 11/1/2
f 10/1/2 6/1/2 12/1/2
f 11/1/2 10/1/2 12/1/2
f 13/2/2 14/2/2 15/2/2
f 15/2/2 14/2/2 16/2/2
f 13/2/2 15/2/2 17/2/2
f 16/2/2 14/2/2 18/2/2
f 13/2/2 17/2/2 19/2/2
f 17/2/2 18/2/2 19/2/2
f 18/2/2 14/2/2 20/2/2
f 19/2/2 18/2/2 20/2/2
f 21/1/2 22/1/2 23/1/2
f 23/1/2 22/1/2 24/1/2
f 27/1/3 26/1/3 25/1/3
f 28/1/3 26/1/3 27/1/3
f 31/2/3 30/2/3 29/2/3
f 32/2/3 30/2/3 31/2/3
f 35/1/3 34/1/3 33/1/3
f 36/1/3 34/1/3 35/1/3
f 37/1/4 38/1/4 39/1/4
f 39/1/4 38/1/4 40/1/4
f 41/2/4 42/2/4 43/2/4
f 43/2/4 42/2/4 44/2/4
f 45/1/4 46/1/4 47/1/4
f 47/1/4 46/1/4 48/1/4
f 51/1/5 50/1/5 49/1/5
f 52/1/5 50/1/5 51/1/5
f 55/2/5 54/2/5 53/2/5
f 56/2/5 54/2/5 55/2/5
f 59/1/5 58/1/5 57/1/5
f 60/1/5 58/1/5 59/1/5
f 61/1/6 62/1/6 63/1/6
f 63/1/6 62/1/6 64/1/6
f 65/2/6 66/2/6 67/2/6
f 67/2/6 66/2/6 68/2/6
f 69/1/6 70/1/6 71/1/6
f 71/1/6 70/1/6 72/1/6
