# MagicaVoxel @ Ephtracy

# group
g wardrobe

# material
mtllib wardrobe.mtl
usemtl palette

# normals
vn -1 0 0
vn 1 0 0
vn 0 0 1
vn 0 0 -1
vn 0 -1 0
vn 0 1 0

# texcoords
vt 0.0878906 0.5
vt 0.361328 0.5
vt 0.369141 0.5

# verts
v -1 0 13
v -1 0 -13
v -1 39 13
v -1 39 -13
v 15 0 13
v 15 0 -13
v 15 2 11
v 15 2 1
v 15 2 -1
v 15 2 -11
v 15 38 11
v 15 38 1
v 15 38 -1
v 15 38 -11
v 15 39 13
v 15 39 -13
v 16 2 11
v 16 2 1
v 16 2 -1
v 16 2 -11
v 16 19 5
v 16 19 2
v 16 19 -2
v 16 19 -5
v 16 22 5
v 16 22 2
v 16 22 -2
v 16 22 -5
v 16 38 11
v 16 38 1
v 16 38 -1
v 16 38 -11
v 17 19 5
v 17 19 2
v 17 19 -2
v 17 19 -5
v 17 22 5
v 17 22 2
v 17 22 -2
v 17 22 -5
v -1 0 13
v -1 39 13
v 15 0 13
v 15 39 13
v 15 2 11
v 15 38 11
v 16 2 11
v 16 38 11
v 16 19 5
v 16 22 5
v 17 19 5
v 17 22 5
v 15 2 -1
v 15 38 -1
v 16 2 -1
v 16 38 -1
v 16 19 -2
v 16 22 -2
v 17 19 -2
v 17 22 -2
v 16 19 2
v 16 22 2
v 17 19 2
v 17 22 2
v 15 2 1
v 15 38 1
v 16 2 1
v 16 38 1
v 16 19 -5
v 16 22 -5
v 17 19 -5
v 17 22 -5
v 15 2 -11
v 15 38 -11
v 16 2 -11
v 16 38 -11
v -1 0 -13
v -1 39 -13
v 15 0 -13
v 15 39 -13
v -1 0 13
v 15 0 13
v -1 0 -13
v 15 0 -13
v 15 2 11
v 16 2 11
v 15 2 1
v 16 2 1
v 15 2 -1
v 16 2 -1
v 15 2 -11
v 16 2 -11
v 16 19 5
v 17 19 5
v 16 19 2
v 17 19 2
v 16 19 -2
v 17 19 -2
v 16 19 -5
v 17 19 -5
v 16 22 5
v 17 22 5
v 16 22 2
v 17 22 2
v 16 22 -2
v 17 22 -2
v 16 22 -5
v 17 22 -5
v 15 38 11
v 16 38 11
v 15 38 1
v 16 38 1
v 15 38 -1
v 16 38 -1
v 15 38 -11
v 16 38 -11
v -1 39 13
v 15 39 13
v -1 39 -13
v 15 39 -13

# faces
f 3/1/1 2/1/1 1/1/1
f 4/1/1 2/1/1 3/1/1
f 5/1/2 6/1/2 7/1/2
f 7/1/2 6/1/2 8/1/2
f 8/1/2 6/1/2 9/1/2
f 9/1/2 6/1/2 10/1/2
f 5/1/2 7/1/2 11/1/2
f 8/1/2 9/1/2 12/1/2
f 12/1/2 9/1/2 13/1/2
f 10/1/2 6/1/2 14/1/2
f 12/1/2 13/1/2 15/1/2
f 13/1/2 14/1/2 15/1/2
f 5/1/2 11/1/2 15/1/2
f 11/1/2 12/1/2 15/1/2
f 14/1/2 6/1/2 16/1/2
f 15/1/2 14/1/2 16/1/2
f 17/3/2 18/3/2 21/3/2
f 21/3/2 18/3/2 22/3/2
f 19/3/2 20/3/2 23/3/2
f 23/3/2 20/3/2 24/3/2
f 17/3/2 21/3/2 25/3/2
f 22/3/2 18/3/2 26/3/2
f 19/3/2 23/3/2 27/3/2
f 24/3/2 20/3/2 28/3/2
f 17/3/2 25/3/2 29/3/2
f 25/3/2 26/3/2 29/3/2
f 26/3/2 18/3/2 30/3/2
f 29/3/2 26/3/2 30/3/2
f 27/3/2 28/3/2 31/3/2
f 19/3/2 27/3/2 31/3/2
f 28/3/2 20/3/2 32/3/2
f 31/3/2 28/3/2 32/3/2
f 33/2/2 34/2/2 37/2/2
f 37/2/2 34/2/2 38/2/2
f 35/2/2 36/2/2 39/2/2
f 39/2/2 36/2/2 40/2/2
f 43/1/3 42/1/3 41/1/3
f 44/1/3 42/1/3 43/1/3
f 47/3/3 46/3/3 45/3/3
f 48/3/3 46/3/3 47/3/3
f 51/2/3 50/2/3 49/2/3
f 52/2/3 50/2/3 51/2/3
f 55/3/3 54/3/3 53/3/3
f 56/3/3 54/3/3 55/3/3
f 59/2/3 58/2/3 57/2/3
f 60/2/3 58/2/3 59/2/3
f 61/2/4 62/2/4 63/2/4
f 63/2/4 62/2/4 64/2/4
f 65/3/4 66/3/4 67/3/4
f 67/3/4 66/3/4 68/3/4
f 69/2/4 70/2/4 71/2/4
f 71/2/4 70/2/4 72/2/4
f 73/3/4 74/3/4 75/3/4
f 75/3/4 74/3/4 76/3/4
f 77/1/4 78/1/4 79/1/4
f 79/1/4 78/1/4 80/1/4
f 83/1/5 82/1/5 81/1/5
f 84/1/5 82/1/5 83/1/5
f 87/3/5 86/3/5 85/3/5
f 88/3/5 86/3/5 87/3/5
f 91/3/5 90/3/5 89/3/5
f 92/3/5 90/3/5 91/3/5
f 95/2/5 94/2/5 93/2/5
f 96/2/5 94/2/5 95/2/5
f 99/2/5 98/2/5 97/2/5
f 100/2/5 98/2/5 99/2/5
f 101/2/6 102/2/6 103/2/6
f 103/2/6 102/2/6 104/2/6
f 105/2/6 106/2/6 107/2/6
f 107/2/6 106/2/6 108/2/6
f 109/3/6 110/3/6 111/3/6
f 111/3/6 110/3/6 112/3/6
f 113/3/6 114/3/6 115/3/6
f 115/3/6 114/3/6 116/3/6
f 117/1/6 118/1/6 119/1/6
f 119/1/6 118/1/6 120/1/6
