# MagicaVoxel @ Ephtracy

# group
g floor_2

# material
mtllib floor_2.mtl
usemtl palette

# normals
vn -1 0 0
vn 1 0 0
vn 0 0 1
vn 0 0 -1
vn 0 -1 0
vn 0 1 0

# texcoords
vt 0.951172 0.5
vt 0.958984 0.5
vt 0.962891 0.5
vt 0.994141 0.5

# verts
v -20 0 20
v -20 0 2
v -20 0 1
v -20 0 -1
v -20 0 -2
v -20 0 -20
v -20 1 2
v -20 1 1
v -20 1 -1
v -20 1 -2
v -20 39 2
v -20 39 1
v -20 39 -1
v -20 39 -20
v -20 40 20
v -20 40 2
v -20 40 1
v -20 40 -1
v -20 40 -20
v 20 0 20
v 20 0 2
v 20 0 1
v 20 0 -1
v 20 0 -2
v 20 0 -20
v 20 1 2
v 20 1 1
v 20 1 -1
v 20 1 -2
v 20 39 20
v 20 39 1
v 20 39 -1
v 20 39 -2
v 20 40 20
v 20 40 1
v 20 40 -1
v 20 40 -2
v 20 40 -20
v -20 0 20
v -20 40 20
v -1 0 20
v -1 1 20
v -1 39 20
v -1 40 20
v 1 0 20
v 1 1 20
v 1 39 20
v 1 40 20
v 20 0 20
v 20 39 20
v 20 40 20
v -20 0 -20
v -20 39 -20
v -20 40 -20
v -1 0 -20
v -1 1 -20
v -1 39 -20
v -1 40 -20
v 1 0 -20
v 1 1 -20
v 1 39 -20
v 1 40 -20
v 20 0 -20
v 20 40 -20
v -20 0 20
v -1 0 20
v 1 0 20
v 20 0 20
v -20 0 2
v -19 0 2
v 19 0 2
v 20 0 2
v -20 0 1
v -19 0 1
v -1 0 1
v 1 0 1
v 19 0 1
v 20 0 1
v -20 0 -1
v -19 0 -1
v -1 0 -1
v 1 0 -1
v 19 0 -1
v 20 0 -1
v -20 0 -2
v -19 0 -2
v 19 0 -2
v 20 0 -2
v -20 0 -20
v -1 0 -20
v 1 0 -20
v 20 0 -20
v -20 40 20
v -1 40 20
v 1 40 20
v 20 40 20
v -20 40 2
v -19 40 2
v -20 40 1
v -19 40 1
v -1 40 1
v 1 40 1
v 20 40 1
v -20 40 -1
v -1 40 -1
v 1 40 -1
v 19 40 -1
v 20 40 -1
v 19 40 -2
v 20 40 -2
v -20 40 -20
v -1 40 -20
v 1 40 -20
v 20 40 -20

# faces
f 7/1/1 2/1/1 1/1/1
f 7/4/1 3/4/1 2/4/1
f 8/3/1 4/3/1 3/3/1
f 8/4/1 3/4/1 7/4/1
f 9/4/1 5/4/1 4/4/1
f 9/3/1 4/3/1 8/3/1
f 10/1/1 6/1/1 5/1/1
f 10/4/1 5/4/1 9/4/1
f 11/1/1 9/1/1 8/1/1
f 11/1/1 8/1/1 7/1/1
f 11/1/1 10/1/1 9/1/1
f 11/1/1 7/1/1 1/1/1
f 12/1/1 10/1/1 11/1/1
f 13/1/1 10/1/1 12/1/1
f 14/1/1 6/1/1 10/1/1
f 14/1/1 10/1/1 13/1/1
f 15/1/1 11/1/1 1/1/1
f 16/4/1 12/4/1 11/4/1
f 16/1/1 11/1/1 15/1/1
f 17/3/1 13/3/1 12/3/1
f 17/4/1 12/4/1 16/4/1
f 18/2/1 14/2/1 13/2/1
f 18/3/1 13/3/1 17/3/1
f 19/2/1 14/2/1 18/2/1
f 20/1/2 21/1/2 26/1/2
f 21/4/2 22/4/2 26/4/2
f 22/3/2 23/3/2 27/3/2
f 26/4/2 22/4/2 27/4/2
f 23/4/2 24/4/2 28/4/2
f 27/3/2 23/3/2 28/3/2
f 24/1/2 25/1/2 29/1/2
f 28/4/2 24/4/2 29/4/2
f 27/1/2 28/1/2 30/1/2
f 26/1/2 27/1/2 30/1/2
f 28/1/2 29/1/2 30/1/2
f 20/1/2 26/1/2 30/1/2
f 30/1/2 29/1/2 31/1/2
f 31/1/2 29/1/2 32/1/2
f 29/1/2 25/1/2 33/1/2
f 32/1/2 29/1/2 33/1/2
f 30/2/2 31/2/2 34/2/2
f 31/3/2 32/3/2 35/3/2
f 34/2/2 31/2/2 35/2/2
f 32/4/2 33/4/2 36/4/2
f 35/3/2 32/3/2 36/3/2
f 33/1/2 25/1/2 37/1/2
f 36/4/2 33/4/2 37/4/2
f 37/1/2 25/1/2 38/1/2
f 41/1/3 40/1/3 39/1/3
f 42/1/3 40/1/3 41/1/3
f 43/1/3 40/1/3 42/1/3
f 44/1/3 40/1/3 43/1/3
f 45/3/3 42/3/3 41/3/3
f 46/1/3 43/1/3 42/1/3
f 46/3/3 42/3/3 45/3/3
f 47/3/3 44/3/3 43/3/3
f 47/1/3 43/1/3 46/1/3
f 48/3/3 44/3/3 47/3/3
f 49/1/3 46/1/3 45/1/3
f 49/1/3 47/1/3 46/1/3
f 50/2/3 48/2/3 47/2/3
f 50/1/3 47/1/3 49/1/3
f 51/2/3 48/2/3 50/2/3
f 52/1/4 53/1/4 55/1/4
f 55/1/4 53/1/4 56/1/4
f 53/2/4 54/2/4 57/2/4
f 56/1/4 53/1/4 57/1/4
f 57/2/4 54/2/4 58/2/4
f 55/3/4 56/3/4 59/3/4
f 56/1/4 57/1/4 60/1/4
f 59/3/4 56/3/4 60/3/4
f 57/3/4 58/3/4 61/3/4
f 60/1/4 57/1/4 61/1/4
f 61/3/4 58/3/4 62/3/4
f 59/1/4 60/1/4 63/1/4
f 60/1/4 61/1/4 63/1/4
f 61/1/4 62/1/4 63/1/4
f 63/1/4 62/1/4 64/1/4
f 69/1/5 66/1/5 65/1/5
f 70/1/5 66/1/5 69/1/5
f 71/1/5 68/1/5 67/1/5
f 72/1/5 68/1/5 71/1/5
f 73/4/5 70/4/5 69/4/5
f 74/1/5 66/1/5 70/1/5
f 74/4/5 70/4/5 73/4/5
f 75/3/5 67/3/5 66/3/5
f 75/1/5 66/1/5 74/1/5
f 76/1/5 71/1/5 67/1/5
f 76/3/5 67/3/5 75/3/5
f 77/4/5 72/4/5 71/4/5
f 77/1/5 71/1/5 76/1/5
f 78/4/5 72/4/5 77/4/5
f 79/3/5 74/3/5 73/3/5
f 79/3/5 75/3/5 74/3/5
f 79/3/5 78/3/5 77/3/5
f 79/3/5 77/3/5 76/3/5
f 79/3/5 76/3/5 75/3/5
f 80/3/5 78/3/5 79/3/5
f 81/3/5 78/3/5 80/3/5
f 82/3/5 78/3/5 81/3/5
f 83/3/5 78/3/5 82/3/5
f 84/3/5 78/3/5 83/3/5
f 85/4/5 80/4/5 79/4/5
f 86/1/5 81/1/5 80/1/5
f 86/4/5 80/4/5 85/4/5
f 87/1/5 83/1/5 82/1/5
f 87/4/5 84/4/5 83/4/5
f 88/4/5 84/4/5 87/4/5
f 89/1/5 86/1/5 85/1/5
f 90/3/5 82/3/5 81/3/5
f 90/1/5 86/1/5 89/1/5
f 90/1/5 81/1/5 86/1/5
f 91/1/5 88/1/5 87/1/5
f 91/3/5 82/3/5 90/3/5
f 91/1/5 87/1/5 82/1/5
f 92/1/5 88/1/5 91/1/5
f 93/1/6 94/1/6 97/1/6
f 97/1/6 94/1/6 98/1/6
f 97/4/6 98/4/6 99/4/6
f 98/1/6 94/1/6 100/1/6
f 99/4/6 98/4/6 100/4/6
f 94/3/6 95/3/6 101/3/6
f 100/1/6 94/1/6 101/1/6
f 95/2/6 96/2/6 102/2/6
f 101/3/6 95/3/6 102/3/6
f 102/2/6 96/2/6 103/2/6
f 100/3/6 101/3/6 104/3/6
f 99/3/6 100/3/6 104/3/6
f 102/3/6 103/3/6 104/3/6
f 101/3/6 102/3/6 104/3/6
f 104/3/6 103/3/6 105/3/6
f 105/3/6 103/3/6 106/3/6
f 106/3/6 103/3/6 107/3/6
f 107/3/6 103/3/6 108/3/6
f 106/1/6 107/1/6 109/1/6
f 107/4/6 108/4/6 109/4/6
f 109/4/6 108/4/6 110/4/6
f 104/2/6 105/2/6 111/2/6
f 105/3/6 106/3/6 112/3/6
f 111/2/6 105/2/6 112/2/6
f 106/1/6 109/1/6 113/1/6
f 112/3/6 106/3/6 113/3/6
f 109/1/6 110/1/6 113/1/6
f 113/1/6 110/1/6 114/1/6
