# MagicaVoxel @ Ephtracy

# group
g survaillencecamera

# material
mtllib survaillencecamera.mtl
usemtl palette

# normals
vn -1 0 0
vn 1 0 0
vn 0 0 1
vn 0 0 -1
vn 0 -1 0
vn 0 1 0

# texcoords
vt 0.849609 0.5
vt 0.990234 0.5
vt 0.994141 0.5

# verts
v -6 0 12
v -6 0 -13
v -6 17 12
v -6 17 -13
v -4 5 20
v -4 5 12
v -4 12 20
v -4 12 12
v 3 6 20
v 3 6 19
v 3 11 20
v 3 11 19
v 4 1 13
v 4 1 12
v 4 2 13
v 4 2 12
v -3 6 20
v -3 6 19
v -3 11 20
v -3 11 19
v 4 5 20
v 4 5 12
v 4 12 20
v 4 12 12
v 5 1 13
v 5 1 12
v 5 2 13
v 5 2 12
v 6 0 12
v 6 0 -13
v 6 17 12
v 6 17 -13
v -4 5 20
v -4 12 20
v -3 6 20
v -3 11 20
v 3 6 20
v 3 11 20
v 4 5 20
v 4 12 20
v -3 6 19
v -3 11 19
v 3 6 19
v 3 11 19
v 4 1 13
v 4 2 13
v 5 1 13
v 5 2 13
v -6 0 12
v -6 17 12
v -4 5 12
v -4 12 12
v 4 1 12
v 4 2 12
v 4 5 12
v 4 12 12
v 5 1 12
v 5 2 12
v 6 0 12
v 6 17 12
v -6 0 -13
v -6 17 -13
v 6 0 -13
v 6 17 -13
v -6 0 12
v 6 0 12
v -6 0 -13
v 6 0 -13
v 4 1 13
v 5 1 13
v 4 1 12
v 5 1 12
v -4 5 20
v 4 5 20
v -4 5 12
v 4 5 12
v -3 11 20
v 3 11 20
v -3 11 19
v 3 11 19
v 4 2 13
v 5 2 13
v 4 2 12
v 5 2 12
v -3 6 20
v 3 6 20
v -3 6 19
v 3 6 19
v -4 12 20
v 4 12 20
v -4 12 12
v 4 12 12
v -6 17 12
v 6 17 12
v -6 17 -13
v 6 17 -13

# faces
f 3/2/1 2/2/1 1/2/1
f 4/2/1 2/2/1 3/2/1
f 7/2/1 6/2/1 5/2/1
f 8/2/1 6/2/1 7/2/1
f 11/2/1 10/2/1 9/2/1
f 12/2/1 10/2/1 11/2/1
f 15/1/1 14/1/1 13/1/1
f 16/1/1 14/1/1 15/1/1
f 17/2/2 18/2/2 19/2/2
f 19/2/2 18/2/2 20/2/2
f 21/2/2 22/2/2 23/2/2
f 23/2/2 22/2/2 24/2/2
f 25/1/2 26/1/2 27/1/2
f 27/1/2 26/1/2 28/1/2
f 29/2/2 30/2/2 31/2/2
f 31/2/2 30/2/2 32/2/2
f 35/2/3 34/2/3 33/2/3
f 36/2/3 34/2/3 35/2/3
f 37/2/3 35/2/3 33/2/3
f 38/2/3 34/2/3 36/2/3
f 39/2/3 37/2/3 33/2/3
f 39/2/3 38/2/3 37/2/3
f 40/2/3 34/2/3 38/2/3
f 40/2/3 38/2/3 39/2/3
f 43/3/3 42/3/3 41/3/3
f 44/3/3 42/3/3 43/3/3
f 47/1/3 46/1/3 45/1/3
f 48/1/3 46/1/3 47/1/3
f 51/2/3 50/2/3 49/2/3
f 52/2/3 50/2/3 51/2/3
f 53/2/3 51/2/3 49/2/3
f 54/2/3 51/2/3 53/2/3
f 55/2/3 51/2/3 54/2/3
f 56/2/3 50/2/3 52/2/3
f 57/2/3 53/2/3 49/2/3
f 58/2/3 55/2/3 54/2/3
f 58/2/3 56/2/3 55/2/3
f 59/2/3 57/2/3 49/2/3
f 59/2/3 58/2/3 57/2/3
f 60/2/3 56/2/3 58/2/3
f 60/2/3 58/2/3 59/2/3
f 60/2/3 50/2/3 56/2/3
f 61/2/4 62/2/4 63/2/4
f 63/2/4 62/2/4 64/2/4
f 67/2/5 66/2/5 65/2/5
f 68/2/5 66/2/5 67/2/5
f 71/1/5 70/1/5 69/1/5
f 72/1/5 70/1/5 71/1/5
f 75/2/5 74/2/5 73/2/5
f 76/2/5 74/2/5 75/2/5
f 79/2/5 78/2/5 77/2/5
f 80/2/5 78/2/5 79/2/5
f 81/1/6 82/1/6 83/1/6
f 83/1/6 82/1/6 84/1/6
f 85/2/6 86/2/6 87/2/6
f 87/2/6 86/2/6 88/2/6
f 89/2/6 90/2/6 91/2/6
f 91/2/6 90/2/6 92/2/6
f 93/2/6 94/2/6 95/2/6
f 95/2/6 94/2/6 96/2/6
