# MagicaVoxel @ Ephtracy

# group
g widescreen

# material
mtllib widescreen.mtl
usemtl palette

# normals
vn -1 0 0
vn 1 0 0
vn 0 0 1
vn 0 0 -1
vn 0 -1 0
vn 0 1 0

# texcoords
vt 0.845703 0.5
vt 0.986328 0.5
vt 0.990234 0.5
vt 0.994141 0.5

# verts
v -20 0 2
v -20 0 -6
v -20 2 2
v -20 2 1
v -20 2 -0
v -20 38 2
v -20 38 1
v -20 38 -0
v -20 40 2
v -20 40 -6
v 17 39 3
v 17 39 2
v 17 40 3
v 17 40 2
v 18 39 3
v 18 39 2
v 18 40 3
v 18 40 2
v 20 0 2
v 20 0 -6
v 20 2 2
v 20 2 1
v 20 2 -0
v 20 38 2
v 20 38 1
v 20 38 -0
v 20 40 2
v 20 40 -6
v 17 39 3
v 17 40 3
v 18 39 3
v 18 40 3
v -20 0 2
v -20 2 2
v -20 38 2
v -20 40 2
v 17 39 2
v 17 40 2
v 18 39 2
v 18 40 2
v 20 0 2
v 20 2 2
v 20 38 2
v 20 40 2
v -20 2 1
v -20 38 1
v -18 22 1
v -18 23 1
v -18 24 1
v -18 36 1
v -17 22 1
v -17 23 1
v -17 24 1
v -17 35 1
v -8 35 1
v -8 36 1
v -7 35 1
v -7 36 1
v -6 35 1
v -6 36 1
v 11 4 1
v 11 5 1
v 12 4 1
v 12 5 1
v 13 4 1
v 13 5 1
v 17 5 1
v 17 10 1
v 17 11 1
v 17 12 1
v 18 4 1
v 18 10 1
v 18 11 1
v 18 12 1
v 20 2 1
v 20 38 1
v -20 0 -6
v -20 40 -6
v 20 0 -6
v 20 40 -6
v -20 0 2
v 20 0 2
v -20 0 -6
v 20 0 -6
v -20 38 2
v 20 38 2
v -20 38 1
v 20 38 1
v 17 39 3
v 18 39 3
v 17 39 2
v 18 39 2
v -20 2 2
v 20 2 2
v -20 2 1
v 20 2 1
v 17 40 3
v 18 40 3
v -20 40 2
v 17 40 2
v 18 40 2
v 20 40 2
v -20 40 -6
v 20 40 -6

# faces
f 3/3/1 2/3/1 1/3/1
f 4/3/1 2/3/1 3/3/1
f 5/3/1 2/3/1 4/3/1
f 7/4/1 5/4/1 4/4/1
f 8/3/1 2/3/1 5/3/1
f 8/4/1 5/4/1 7/4/1
f 9/3/1 7/3/1 6/3/1
f 9/3/1 8/3/1 7/3/1
f 10/3/1 2/3/1 8/3/1
f 10/3/1 8/3/1 9/3/1
f 13/1/1 12/1/1 11/1/1
f 14/1/1 12/1/1 13/1/1
f 15/1/2 16/1/2 17/1/2
f 17/1/2 16/1/2 18/1/2
f 19/3/2 20/3/2 21/3/2
f 21/3/2 20/3/2 22/3/2
f 22/3/2 20/3/2 23/3/2
f 22/4/2 23/4/2 25/4/2
f 23/3/2 20/3/2 26/3/2
f 25/4/2 23/4/2 26/4/2
f 24/3/2 25/3/2 27/3/2
f 25/3/2 26/3/2 27/3/2
f 26/3/2 20/3/2 28/3/2
f 27/3/2 26/3/2 28/3/2
f 31/1/3 30/1/3 29/1/3
f 32/1/3 30/1/3 31/1/3
f 37/3/3 36/3/3 35/3/3
f 38/3/3 36/3/3 37/3/3
f 39/3/3 37/3/3 35/3/3
f 41/3/3 34/3/3 33/3/3
f 42/3/3 34/3/3 41/3/3
f 43/3/3 40/3/3 39/3/3
f 43/3/3 39/3/3 35/3/3
f 44/3/3 40/3/3 43/3/3
f 47/4/3 46/4/3 45/4/3
f 48/4/3 46/4/3 47/4/3
f 49/4/3 46/4/3 48/4/3
f 50/4/3 46/4/3 49/4/3
f 51/4/3 47/4/3 45/4/3
f 51/2/3 48/2/3 47/2/3
f 52/4/3 49/4/3 48/4/3
f 52/2/3 48/2/3 51/2/3
f 53/2/3 50/2/3 49/2/3
f 53/4/3 49/4/3 52/4/3
f 54/2/3 50/2/3 53/2/3
f 55/4/3 52/4/3 51/4/3
f 55/2/3 50/2/3 54/2/3
f 55/4/3 54/4/3 53/4/3
f 55/4/3 53/4/3 52/4/3
f 56/4/3 46/4/3 50/4/3
f 56/2/3 50/2/3 55/2/3
f 57/4/3 55/4/3 51/4/3
f 57/4/3 56/4/3 55/4/3
f 58/4/3 46/4/3 56/4/3
f 58/4/3 56/4/3 57/4/3
f 59/4/3 57/4/3 51/4/3
f 59/2/3 58/2/3 57/2/3
f 60/4/3 46/4/3 58/4/3
f 60/2/3 58/2/3 59/2/3
f 61/4/3 59/4/3 51/4/3
f 61/4/3 51/4/3 45/4/3
f 61/4/3 60/4/3 59/4/3
f 62/4/3 60/4/3 61/4/3
f 63/4/3 61/4/3 45/4/3
f 63/2/3 62/2/3 61/2/3
f 64/4/3 60/4/3 62/4/3
f 64/2/3 62/2/3 63/2/3
f 65/4/3 63/4/3 45/4/3
f 65/4/3 64/4/3 63/4/3
f 66/4/3 60/4/3 64/4/3
f 66/4/3 64/4/3 65/4/3
f 67/2/3 66/2/3 65/2/3
f 67/4/3 60/4/3 66/4/3
f 68/4/3 60/4/3 67/4/3
f 69/4/3 60/4/3 68/4/3
f 70/4/3 60/4/3 69/4/3
f 71/4/3 65/4/3 45/4/3
f 71/2/3 67/2/3 65/2/3
f 71/2/3 68/2/3 67/2/3
f 72/4/3 69/4/3 68/4/3
f 72/2/3 68/2/3 71/2/3
f 73/2/3 70/2/3 69/2/3
f 73/4/3 69/4/3 72/4/3
f 74/4/3 60/4/3 70/4/3
f 74/2/3 70/2/3 73/2/3
f 75/4/3 73/4/3 72/4/3
f 75/4/3 72/4/3 71/4/3
f 75/4/3 74/4/3 73/4/3
f 75/4/3 71/4/3 45/4/3
f 76/4/3 46/4/3 60/4/3
f 76/4/3 74/4/3 75/4/3
f 76/4/3 60/4/3 74/4/3
f 77/3/4 78/3/4 79/3/4
f 79/3/4 78/3/4 80/3/4
f 83/3/5 82/3/5 81/3/5
f 84/3/5 82/3/5 83/3/5
f 87/3/5 86/3/5 85/3/5
f 88/3/5 86/3/5 87/3/5
f 91/1/5 90/1/5 89/1/5
f 92/1/5 90/1/5 91/1/5
f 93/3/6 94/3/6 95/3/6
f 95/3/6 94/3/6 96/3/6
f 97/1/6 98/1/6 100/1/6
f 100/1/6 98/1/6 101/1/6
f 99/3/6 100/3/6 103/3/6
f 101/3/6 102/3/6 103/3/6
f 100/3/6 101/3/6 103/3/6
f 103/3/6 102/3/6 104/3/6
