# MagicaVoxel @ Ephtracy

# group
g widescreen

# material
mtllib widescreen.mtl
usemtl palette

# normals
vn -1 0 0
vn 1 0 0
vn 0 0 1
vn 0 0 -1
vn 0 -1 0
vn 0 1 0

# texcoords
vt 0.849609 0.5
vt 0.974609 0.5
vt 0.990234 0.5
vt 0.994141 0.5

# verts
v -20 0 1
v -20 0 -1
v -20 22 1
v -20 22 -1
v 20 0 1
v 20 0 -1
v 20 22 1
v 20 22 -1
v -20 0 1
v -20 22 1
v -19 3 1
v -19 21 1
v -18 13 1
v -18 14 1
v -18 15 1
v -18 20 1
v -17 13 1
v -17 14 1
v -17 15 1
v -17 19 1
v -13 19 1
v -13 20 1
v -12 19 1
v -12 20 1
v -11 19 1
v -11 20 1
v 11 4 1
v 11 5 1
v 12 4 1
v 12 5 1
v 13 4 1
v 13 5 1
v 17 5 1
v 17 9 1
v 17 10 1
v 17 11 1
v 18 1 1
v 18 2 1
v 18 4 1
v 18 9 1
v 18 10 1
v 18 11 1
v 19 1 1
v 19 2 1
v 19 3 1
v 19 21 1
v 20 0 1
v 20 22 1
v -20 0 -1
v -20 22 -1
v 20 0 -1
v 20 22 -1
v -20 0 1
v 20 0 1
v -20 0 -1
v 20 0 -1
v -20 22 1
v 20 22 1
v -20 22 -1
v 20 22 -1

# faces
f 3/3/1 2/3/1 1/3/1
f 4/3/1 2/3/1 3/3/1
f 5/3/2 6/3/2 7/3/2
f 7/3/2 6/3/2 8/3/2
f 11/3/3 10/3/3 9/3/3
f 12/3/3 10/3/3 11/3/3
f 13/4/3 12/4/3 11/4/3
f 14/4/3 12/4/3 13/4/3
f 15/4/3 12/4/3 14/4/3
f 16/4/3 12/4/3 15/4/3
f 17/4/3 13/4/3 11/4/3
f 17/2/3 14/2/3 13/2/3
f 18/4/3 15/4/3 14/4/3
f 18/2/3 14/2/3 17/2/3
f 19/2/3 16/2/3 15/2/3
f 19/4/3 15/4/3 18/4/3
f 20/2/3 16/2/3 19/2/3
f 21/4/3 18/4/3 17/4/3
f 21/2/3 16/2/3 20/2/3
f 21/4/3 20/4/3 19/4/3
f 21/4/3 19/4/3 18/4/3
f 22/4/3 12/4/3 16/4/3
f 22/2/3 16/2/3 21/2/3
f 23/4/3 21/4/3 17/4/3
f 23/4/3 22/4/3 21/4/3
f 24/4/3 12/4/3 22/4/3
f 24/4/3 22/4/3 23/4/3
f 25/4/3 23/4/3 17/4/3
f 25/2/3 24/2/3 23/2/3
f 26/4/3 12/4/3 24/4/3
f 26/2/3 24/2/3 25/2/3
f 27/4/3 25/4/3 17/4/3
f 27/4/3 17/4/3 11/4/3
f 27/4/3 26/4/3 25/4/3
f 28/4/3 26/4/3 27/4/3
f 29/4/3 27/4/3 11/4/3
f 29/2/3 28/2/3 27/2/3
f 30/4/3 26/4/3 28/4/3
f 30/2/3 28/2/3 29/2/3
f 31/4/3 29/4/3 11/4/3
f 31/4/3 30/4/3 29/4/3
f 32/4/3 26/4/3 30/4/3
f 32/4/3 30/4/3 31/4/3
f 33/2/3 32/2/3 31/2/3
f 33/4/3 26/4/3 32/4/3
f 34/4/3 26/4/3 33/4/3
f 35/4/3 26/4/3 34/4/3
f 36/4/3 26/4/3 35/4/3
f 37/3/3 11/3/3 9/3/3
f 38/3/3 11/3/3 37/3/3
f 39/4/3 31/4/3 11/4/3
f 39/2/3 33/2/3 31/2/3
f 39/2/3 34/2/3 33/2/3
f 40/4/3 35/4/3 34/4/3
f 40/2/3 34/2/3 39/2/3
f 41/2/3 36/2/3 35/2/3
f 41/4/3 35/4/3 40/4/3
f 42/4/3 26/4/3 36/4/3
f 42/2/3 36/2/3 41/2/3
f 43/1/3 38/1/3 37/1/3
f 43/3/3 37/3/3 9/3/3
f 44/3/3 11/3/3 38/3/3
f 44/1/3 38/1/3 43/1/3
f 45/4/3 41/4/3 40/4/3
f 45/3/3 11/3/3 44/3/3
f 45/4/3 42/4/3 41/4/3
f 45/4/3 40/4/3 39/4/3
f 45/4/3 39/4/3 11/4/3
f 46/3/3 10/3/3 12/3/3
f 46/4/3 42/4/3 45/4/3
f 46/4/3 12/4/3 26/4/3
f 46/4/3 26/4/3 42/4/3
f 47/3/3 44/3/3 43/3/3
f 47/3/3 45/3/3 44/3/3
f 47/3/3 46/3/3 45/3/3
f 47/3/3 43/3/3 9/3/3
f 48/3/3 10/3/3 46/3/3
f 48/3/3 46/3/3 47/3/3
f 49/3/4 50/3/4 51/3/4
f 51/3/4 50/3/4 52/3/4
f 55/3/5 54/3/5 53/3/5
f 56/3/5 54/3/5 55/3/5
f 57/3/6 58/3/6 59/3/6
f 59/3/6 58/3/6 60/3/6
