# MagicaVoxel @ Ephtracy

# group
g sink

# material
mtllib sink.mtl
usemtl palette

# normals
vn -1 0 0
vn 1 0 0
vn 0 0 1
vn 0 0 -1
vn 0 -1 0
vn 0 1 0

# texcoords
vt 0.849609 0.5
vt 0.935547 0.5
vt 0.962891 0.5
vt 0.990234 0.5

# verts
v -11 17 3
v -11 17 -20
v -11 26 3
v -11 26 -13
v -11 28 -13
v -11 28 -20
v -8 0 -9
v -8 0 -20
v -8 17 -9
v -8 17 -20
v -5 28 -13
v -5 28 -15
v -5 29 -13
v -5 29 -15
v -2 28 -13
v -2 28 -15
v -2 29 -13
v -2 29 -15
v -1 29 -10
v -1 29 -11
v -1 29 -13
v -1 29 -15
v -1 30 -11
v -1 30 -13
v -1 32 -10
v -1 32 -15
v 3 28 -13
v 3 28 -15
v 3 29 -13
v 3 29 -15
v 8 19 1
v 8 19 -12
v 8 26 1
v 8 26 -12
v -8 19 1
v -8 19 -12
v -8 26 1
v -8 26 -12
v -3 28 -13
v -3 28 -15
v -3 29 -13
v -3 29 -15
v 1 29 -10
v 1 29 -11
v 1 29 -13
v 1 29 -15
v 1 30 -11
v 1 30 -13
v 1 32 -10
v 1 32 -15
v 2 28 -13
v 2 28 -15
v 2 29 -13
v 2 29 -15
v 5 28 -13
v 5 28 -15
v 5 29 -13
v 5 29 -15
v 8 0 -9
v 8 0 -20
v 8 17 -9
v 8 17 -20
v 11 17 3
v 11 17 -20
v 11 26 3
v 11 26 -13
v 11 28 -13
v 11 28 -20
v -11 17 3
v -11 26 3
v 11 17 3
v 11 26 3
v -8 0 -9
v -8 17 -9
v 8 0 -9
v 8 17 -9
v -1 29 -10
v -1 32 -10
v 1 29 -10
v 1 32 -10
v -8 19 -12
v -8 26 -12
v 8 19 -12
v 8 26 -12
v -11 26 -13
v -11 28 -13
v -5 28 -13
v -5 29 -13
v -3 28 -13
v -3 29 -13
v -2 28 -13
v -2 29 -13
v -1 29 -13
v -1 30 -13
v 1 29 -13
v 1 30 -13
v 2 28 -13
v 2 29 -13
v 3 28 -13
v 3 29 -13
v 5 28 -13
v 5 29 -13
v 11 26 -13
v 11 28 -13
v -8 19 1
v -8 26 1
v 8 19 1
v 8 26 1
v -1 29 -11
v -1 30 -11
v 1 29 -11
v 1 30 -11
v -5 28 -15
v -5 29 -15
v -3 28 -15
v -3 29 -15
v -2 28 -15
v -2 29 -15
v -1 29 -15
v -1 32 -15
v 1 29 -15
v 1 32 -15
v 2 28 -15
v 2 29 -15
v 3 28 -15
v 3 29 -15
v 5 28 -15
v 5 29 -15
v -11 17 -20
v -11 28 -20
v -8 0 -20
v -8 17 -20
v 8 0 -20
v 8 17 -20
v 11 17 -20
v 11 28 -20
v -8 0 -9
v 8 0 -9
v -8 0 -20
v 8 0 -20
v -11 17 3
v 11 17 3
v -8 17 -9
v 8 17 -9
v -11 17 -20
v -8 17 -20
v 8 17 -20
v 11 17 -20
v -1 29 -10
v 1 29 -10
v -1 29 -11
v 1 29 -11
v -1 30 -11
v 1 30 -11
v -1 30 -13
v 1 30 -13
v -8 19 1
v 8 19 1
v -8 19 -12
v 8 19 -12
v -11 26 3
v 11 26 3
v -8 26 1
v 8 26 1
v -8 26 -12
v 8 26 -12
v -11 26 -13
v 11 26 -13
v -11 28 -13
v -5 28 -13
v -3 28 -13
v -2 28 -13
v 2 28 -13
v 3 28 -13
v 5 28 -13
v 11 28 -13
v -5 28 -15
v -3 28 -15
v -2 28 -15
v 2 28 -15
v 3 28 -15
v 5 28 -15
v -11 28 -20
v 11 28 -20
v -5 29 -13
v -3 29 -13
v -2 29 -13
v -1 29 -13
v 1 29 -13
v 2 29 -13
v 3 29 -13
v 5 29 -13
v -5 29 -15
v -3 29 -15
v -2 29 -15
v -1 29 -15
v 1 29 -15
v 2 29 -15
v 3 29 -15
v 5 29 -15
v -1 32 -10
v 1 32 -10
v -1 32 -15
v 1 32 -15

# faces
f 3/3/1 2/3/1 1/3/1
f 4/3/1 2/3/1 3/3/1
f 5/3/1 2/3/1 4/3/1
f 6/3/1 2/3/1 5/3/1
f 9/3/1 8/3/1 7/3/1
f 10/3/1 8/3/1 9/3/1
f 13/2/1 12/2/1 11/2/1
f 14/2/1 12/2/1 13/2/1
f 17/4/1 16/4/1 15/4/1
f 18/4/1 16/4/1 17/4/1
f 23/4/1 20/4/1 19/4/1
f 24/4/1 22/4/1 21/4/1
f 25/4/1 23/4/1 19/4/1
f 25/4/1 24/4/1 23/4/1
f 26/4/1 22/4/1 24/4/1
f 26/4/1 24/4/1 25/4/1
f 29/1/1 28/1/1 27/1/1
f 30/1/1 28/1/1 29/1/1
f 33/3/1 32/3/1 31/3/1
f 34/3/1 32/3/1 33/3/1
f 35/3/2 36/3/2 37/3/2
f 37/3/2 36/3/2 38/3/2
f 39/2/2 40/2/2 41/2/2
f 41/2/2 40/2/2 42/2/2
f 43/4/2 44/4/2 47/4/2
f 45/4/2 46/4/2 48/4/2
f 43/4/2 47/4/2 49/4/2
f 47/4/2 48/4/2 49/4/2
f 48/4/2 46/4/2 50/4/2
f 49/4/2 48/4/2 50/4/2
f 51/4/2 52/4/2 53/4/2
f 53/4/2 52/4/2 54/4/2
f 55/1/2 56/1/2 57/1/2
f 57/1/2 56/1/2 58/1/2
f 59/3/2 60/3/2 61/3/2
f 61/3/2 60/3/2 62/3/2
f 63/3/2 64/3/2 65/3/2
f 65/3/2 64/3/2 66/3/2
f 66/3/2 64/3/2 67/3/2
f 67/3/2 64/3/2 68/3/2
f 71/3/3 70/3/3 69/3/3
f 72/3/3 70/3/3 71/3/3
f 75/3/3 74/3/3 73/3/3
f 76/3/3 74/3/3 75/3/3
f 79/4/3 78/4/3 77/4/3
f 80/4/3 78/4/3 79/4/3
f 83/3/3 82/3/3 81/3/3
f 84/3/3 82/3/3 83/3/3
f 87/3/3 86/3/3 85/3/3
f 89/3/3 87/3/3 85/3/3
f 89/2/3 88/2/3 87/2/3
f 90/2/3 88/2/3 89/2/3
f 91/3/3 89/3/3 85/3/3
f 93/4/3 92/4/3 91/4/3
f 95/4/3 93/4/3 91/4/3
f 95/4/3 94/4/3 93/4/3
f 96/4/3 94/4/3 95/4/3
f 97/3/3 91/3/3 85/3/3
f 97/4/3 95/4/3 91/4/3
f 98/4/3 95/4/3 97/4/3
f 99/3/3 97/3/3 85/3/3
f 101/3/3 99/3/3 85/3/3
f 101/1/3 100/1/3 99/1/3
f 102/1/3 100/1/3 101/1/3
f 103/3/3 101/3/3 85/3/3
f 104/3/3 101/3/3 103/3/3
f 105/3/4 106/3/4 107/3/4
f 107/3/4 106/3/4 108/3/4
f 109/4/4 110/4/4 111/4/4
f 111/4/4 110/4/4 112/4/4
f 113/2/4 114/2/4 115/2/4
f 115/2/4 114/2/4 116/2/4
f 117/4/4 118/4/4 119/4/4
f 117/4/4 119/4/4 121/4/4
f 119/4/4 120/4/4 121/4/4
f 121/4/4 120/4/4 122/4/4
f 117/4/4 121/4/4 123/4/4
f 123/4/4 121/4/4 124/4/4
f 125/1/4 126/1/4 127/1/4
f 127/1/4 126/1/4 128/1/4
f 129/3/4 130/3/4 132/3/4
f 131/3/4 132/3/4 133/3/4
f 132/3/4 130/3/4 134/3/4
f 133/3/4 132/3/4 134/3/4
f 134/3/4 130/3/4 135/3/4
f 135/3/4 130/3/4 136/3/4
f 139/3/5 138/3/5 137/3/5
f 140/3/5 138/3/5 139/3/5
f 143/3/5 142/3/5 141/3/5
f 144/3/5 142/3/5 143/3/5
f 145/3/5 143/3/5 141/3/5
f 146/3/5 143/3/5 145/3/5
f 147/3/5 142/3/5 144/3/5
f 148/3/5 142/3/5 147/3/5
f 151/4/5 150/4/5 149/4/5
f 152/4/5 150/4/5 151/4/5
f 155/4/5 154/4/5 153/4/5
f 156/4/5 154/4/5 155/4/5
f 157/3/6 158/3/6 159/3/6
f 159/3/6 158/3/6 160/3/6
f 161/3/6 162/3/6 163/3/6
f 163/3/6 162/3/6 164/3/6
f 161/3/6 163/3/6 165/3/6
f 164/3/6 162/3/6 166/3/6
f 161/3/6 165/3/6 167/3/6
f 165/3/6 166/3/6 167/3/6
f 166/3/6 162/3/6 168/3/6
f 167/3/6 166/3/6 168/3/6
f 169/3/6 170/3/6 177/3/6
f 171/3/6 172/3/6 178/3/6
f 178/3/6 172/3/6 179/3/6
f 173/3/6 174/3/6 180/3/6
f 180/3/6 174/3/6 181/3/6
f 175/3/6 176/3/6 182/3/6
f 180/3/6 181/3/6 183/3/6
f 181/3/6 182/3/6 183/3/6
f 169/3/6 177/3/6 183/3/6
f 178/3/6 179/3/6 183/3/6
f 179/3/6 180/3/6 183/3/6
f 177/3/6 178/3/6 183/3/6
f 182/3/6 176/3/6 184/3/6
f 183/3/6 182/3/6 184/3/6
f 185/2/6 186/2/6 193/2/6
f 193/2/6 186/2/6 194/2/6
f 187/4/6 188/4/6 195/4/6
f 195/4/6 188/4/6 196/4/6
f 189/4/6 190/4/6 197/4/6
f 197/4/6 190/4/6 198/4/6
f 191/1/6 192/1/6 199/1/6
f 199/1/6 192/1/6 200/1/6
f 201/4/6 202/4/6 203/4/6
f 203/4/6 202/4/6 204/4/6
