# MagicaVoxel @ Ephtracy

# group
g bedpillow

# material
mtllib bedpillow.mtl
usemtl palette

# normals
vn -1 0 0
vn 1 0 0
vn 0 0 1
vn 0 0 -1
vn 0 -1 0
vn 0 1 0

# texcoords
vt 0.369141 0.5
vt 0.935547 0.5
vt 0.962891 0.5
vt 0.966797 0.5

# verts
v -20 0 20
v -20 0 13
v -20 0 -13
v -20 0 -20
v -20 8 20
v -20 8 13
v -20 8 -13
v -20 8 -20
v -20 30 20
v -20 30 3
v -20 30 -20
v -20 32 20
v -20 32 3
v -17 30 -1
v -17 30 -2
v -17 30 -19
v -17 30 -20
v -17 31 -1
v -17 31 -2
v -17 31 -19
v -17 31 -20
v -16 30 -2
v -16 30 -19
v -16 31 -2
v -16 31 -19
v -15 31 -3
v -15 31 -18
v -15 32 -3
v -15 32 -18
v -14 32 -4
v -14 32 -17
v -14 33 -4
v -14 33 -17
v -13 33 -5
v -13 33 -16
v -13 34 -5
v -13 34 -16
v 13 0 20
v 13 0 13
v 13 0 -13
v 13 0 -20
v 13 8 20
v 13 8 13
v 13 8 -13
v 13 8 -20
v 17 30 -1
v 17 30 -2
v 17 30 -19
v 17 30 -20
v 17 31 -1
v 17 31 -2
v 17 31 -19
v 17 31 -20
v -16 30 -1
v -16 30 -2
v -16 30 -19
v -16 30 -20
v -16 31 -1
v -16 31 -2
v -16 31 -19
v -16 31 -20
v -13 0 20
v -13 0 13
v -13 0 -13
v -13 0 -20
v -13 8 20
v -13 8 13
v -13 8 -13
v -13 8 -20
v 14 33 -5
v 14 33 -16
v 14 34 -5
v 14 34 -16
v 15 32 -4
v 15 32 -17
v 15 33 -4
v 15 33 -17
v 16 31 -3
v 16 31 -18
v 16 32 -3
v 16 32 -18
v 17 30 -2
v 17 30 -19
v 17 31 -2
v 17 31 -19
v 18 30 -1
v 18 30 -2
v 18 30 -19
v 18 30 -20
v 18 31 -1
v 18 31 -2
v 18 31 -19
v 18 31 -20
v 20 0 20
v 20 0 13
v 20 0 -13
v 20 0 -20
v 20 8 20
v 20 8 13
v 20 8 -13
v 20 8 -20
v 20 30 20
v 20 30 3
v 20 30 -20
v 20 32 20
v 20 32 3
v -20 0 20
v -20 8 20
v -20 30 20
v -20 32 20
v -13 0 20
v -13 8 20
v 13 0 20
v 13 8 20
v 20 0 20
v 20 8 20
v 20 30 20
v 20 32 20
v -17 30 -1
v -17 31 -1
v -16 30 -1
v -16 31 -1
v 17 30 -1
v 17 31 -1
v 18 30 -1
v 18 31 -1
v -16 30 -2
v -16 31 -2
v 17 30 -2
v 17 31 -2
v -15 31 -3
v -15 32 -3
v 16 31 -3
v 16 32 -3
v -14 32 -4
v -14 33 -4
v 15 32 -4
v 15 33 -4
v -13 33 -5
v -13 34 -5
v 14 33 -5
v 14 34 -5
v -20 0 -13
v -20 8 -13
v -13 0 -13
v -13 8 -13
v 13 0 -13
v 13 8 -13
v 20 0 -13
v 20 8 -13
v -17 30 -19
v -17 31 -19
v -16 30 -19
v -16 31 -19
v 17 30 -19
v 17 31 -19
v 18 30 -19
v 18 31 -19
v -20 0 13
v -20 8 13
v -13 0 13
v -13 8 13
v 13 0 13
v 13 8 13
v 20 0 13
v 20 8 13
v -20 30 3
v -20 32 3
v 20 30 3
v 20 32 3
v -17 30 -2
v -17 31 -2
v -16 30 -2
v -16 31 -2
v 17 30 -2
v 17 31 -2
v 18 30 -2
v 18 31 -2
v -13 33 -16
v -13 34 -16
v 14 33 -16
v 14 34 -16
v -14 32 -17
v -14 33 -17
v 15 32 -17
v 15 33 -17
v -15 31 -18
v -15 32 -18
v 16 31 -18
v 16 32 -18
v -16 30 -19
v -16 31 -19
v 17 30 -19
v 17 31 -19
v -20 0 -20
v -20 8 -20
v -20 30 -20
v -17 30 -20
v -17 31 -20
v -16 30 -20
v -16 31 -20
v -13 0 -20
v -13 8 -20
v 13 0 -20
v 13 8 -20
v 17 30 -20
v 17 31 -20
v 18 30 -20
v 18 31 -20
v 20 0 -20
v 20 8 -20
v 20 30 -20
v -20 0 20
v -13 0 20
v 13 0 20
v 20 0 20
v -20 0 13
v -13 0 13
v 13 0 13
v 20 0 13
v -20 0 -13
v -13 0 -13
v 13 0 -13
v 20 0 -13
v -20 0 -20
v -13 0 -20
v 13 0 -20
v 20 0 -20
v -13 8 20
v 13 8 20
v -20 8 13
v -13 8 13
v 13 8 13
v 20 8 13
v -20 8 -13
v -13 8 -13
v 13 8 -13
v 20 8 -13
v -13 8 -20
v 13 8 -20
v -20 30 3
v 20 30 3
v -17 30 -1
v -16 30 -1
v 17 30 -1
v 18 30 -1
v -17 30 -2
v -16 30 -2
v 17 30 -2
v 18 30 -2
v -17 30 -19
v -16 30 -19
v 17 30 -19
v 18 30 -19
v -20 30 -20
v -17 30 -20
v -16 30 -20
v 17 30 -20
v 18 30 -20
v 20 30 -20
v -17 31 -1
v -16 31 -1
v 17 31 -1
v 18 31 -1
v -17 31 -2
v -16 31 -2
v 17 31 -2
v 18 31 -2
v -15 31 -3
v 16 31 -3
v -15 31 -18
v 16 31 -18
v -17 31 -19
v -16 31 -19
v 17 31 -19
v 18 31 -19
v -17 31 -20
v -16 31 -20
v 17 31 -20
v 18 31 -20
v -20 32 20
v 20 32 20
v -20 32 3
v 20 32 3
v -15 32 -3
v 16 32 -3
v -14 32 -4
v 15 32 -4
v -14 32 -17
v 15 32 -17
v -15 32 -18
v 16 32 -18
v -14 33 -4
v 15 33 -4
v -13 33 -5
v 14 33 -5
v -13 33 -16
v 14 33 -16
v -14 33 -17
v 15 33 -17
v -13 34 -5
v 14 34 -5
v -13 34 -16
v 14 34 -16

# faces
f 5/1/1 2/1/1 1/1/1
f 6/1/1 2/1/1 5/1/1
f 7/1/1 4/1/1 3/1/1
f 8/1/1 4/1/1 7/1/1
f 9/4/1 6/4/1 5/4/1
f 9/4/1 7/4/1 6/4/1
f 9/4/1 8/4/1 7/4/1
f 10/4/1 8/4/1 9/4/1
f 11/4/1 8/4/1 10/4/1
f 12/2/1 10/2/1 9/2/1
f 13/2/1 10/2/1 12/2/1
f 18/3/1 15/3/1 14/3/1
f 19/3/1 15/3/1 18/3/1
f 20/3/1 17/3/1 16/3/1
f 21/3/1 17/3/1 20/3/1
f 24/3/1 23/3/1 22/3/1
f 25/3/1 23/3/1 24/3/1
f 28/3/1 27/3/1 26/3/1
f 29/3/1 27/3/1 28/3/1
f 32/3/1 31/3/1 30/3/1
f 33/3/1 31/3/1 32/3/1
f 36/3/1 35/3/1 34/3/1
f 37/3/1 35/3/1 36/3/1
f 42/1/1 39/1/1 38/1/1
f 43/1/1 39/1/1 42/1/1
f 44/1/1 41/1/1 40/1/1
f 45/1/1 41/1/1 44/1/1
f 50/3/1 47/3/1 46/3/1
f 51/3/1 47/3/1 50/3/1
f 52/3/1 49/3/1 48/3/1
f 53/3/1 49/3/1 52/3/1
f 54/3/2 55/3/2 58/3/2
f 58/3/2 55/3/2 59/3/2
f 56/3/2 57/3/2 60/3/2
f 60/3/2 57/3/2 61/3/2
f 62/1/2 63/1/2 66/1/2
f 66/1/2 63/1/2 67/1/2
f 64/1/2 65/1/2 68/1/2
f 68/1/2 65/1/2 69/1/2
f 70/3/2 71/3/2 72/3/2
f 72/3/2 71/3/2 73/3/2
f 74/3/2 75/3/2 76/3/2
f 76/3/2 75/3/2 77/3/2
f 78/3/2 79/3/2 80/3/2
f 80/3/2 79/3/2 81/3/2
f 82/3/2 83/3/2 84/3/2
f 84/3/2 83/3/2 85/3/2
f 86/3/2 87/3/2 90/3/2
f 90/3/2 87/3/2 91/3/2
f 88/3/2 89/3/2 92/3/2
f 92/3/2 89/3/2 93/3/2
f 94/1/2 95/1/2 98/1/2
f 98/1/2 95/1/2 99/1/2
f 96/1/2 97/1/2 100/1/2
f 100/1/2 97/1/2 101/1/2
f 98/4/2 99/4/2 102/4/2
f 99/4/2 100/4/2 102/4/2
f 100/4/2 101/4/2 102/4/2
f 102/4/2 101/4/2 103/4/2
f 103/4/2 101/4/2 104/4/2
f 102/2/2 103/2/2 105/2/2
f 105/2/2 103/2/2 106/2/2
f 111/1/3 108/1/3 107/1/3
f 112/4/3 109/4/3 108/4/3
f 112/1/3 108/1/3 111/1/3
f 114/4/3 109/4/3 112/4/3
f 115/1/3 114/1/3 113/1/3
f 116/4/3 109/4/3 114/4/3
f 116/1/3 114/1/3 115/1/3
f 117/2/3 110/2/3 109/2/3
f 117/4/3 109/4/3 116/4/3
f 118/2/3 110/2/3 117/2/3
f 121/3/3 120/3/3 119/3/3
f 122/3/3 120/3/3 121/3/3
f 125/3/3 124/3/3 123/3/3
f 126/3/3 124/3/3 125/3/3
f 129/3/3 128/3/3 127/3/3
f 130/3/3 128/3/3 129/3/3
f 133/3/3 132/3/3 131/3/3
f 134/3/3 132/3/3 133/3/3
f 137/3/3 136/3/3 135/3/3
f 138/3/3 136/3/3 137/3/3
f 141/3/3 140/3/3 139/3/3
f 142/3/3 140/3/3 141/3/3
f 145/1/3 144/1/3 143/1/3
f 146/1/3 144/1/3 145/1/3
f 149/1/3 148/1/3 147/1/3
f 150/1/3 148/1/3 149/1/3
f 153/3/3 152/3/3 151/3/3
f 154/3/3 152/3/3 153/3/3
f 157/3/3 156/3/3 155/3/3
f 158/3/3 156/3/3 157/3/3
f 159/1/4 160/1/4 161/1/4
f 161/1/4 160/1/4 162/1/4
f 163/1/4 164/1/4 165/1/4
f 165/1/4 164/1/4 166/1/4
f 167/2/4 168/2/4 169/2/4
f 169/2/4 168/2/4 170/2/4
f 171/3/4 172/3/4 173/3/4
f 173/3/4 172/3/4 174/3/4
f 175/3/4 176/3/4 177/3/4
f 177/3/4 176/3/4 178/3/4
f 179/3/4 180/3/4 181/3/4
f 181/3/4 180/3/4 182/3/4
f 183/3/4 184/3/4 185/3/4
f 185/3/4 184/3/4 186/3/4
f 187/3/4 188/3/4 189/3/4
f 189/3/4 188/3/4 190/3/4
f 191/3/4 192/3/4 193/3/4
f 193/3/4 192/3/4 194/3/4
f 196/4/4 197/4/4 198/4/4
f 196/4/4 198/4/4 200/4/4
f 198/3/4 199/3/4 200/3/4
f 200/3/4 199/3/4 201/3/4
f 195/1/4 196/1/4 202/1/4
f 196/4/4 200/4/4 203/4/4
f 202/1/4 196/1/4 203/1/4
f 203/4/4 200/4/4 205/4/4
f 205/4/4 200/4/4 206/4/4
f 205/4/4 206/4/4 208/4/4
f 206/3/4 207/3/4 208/3/4
f 208/3/4 207/3/4 209/3/4
f 204/1/4 205/1/4 210/1/4
f 205/4/4 208/4/4 211/4/4
f 210/1/4 205/1/4 211/1/4
f 211/4/4 208/4/4 212/4/4
f 217/1/5 214/1/5 213/1/5
f 218/1/5 214/1/5 217/1/5
f 219/1/5 216/1/5 215/1/5
f 220/1/5 216/1/5 219/1/5
f 225/1/5 222/1/5 221/1/5
f 226/1/5 222/1/5 225/1/5
f 227/1/5 224/1/5 223/1/5
f 228/1/5 224/1/5 227/1/5
f 232/4/5 230/4/5 229/4/5
f 233/4/5 230/4/5 232/4/5
f 235/4/5 232/4/5 231/4/5
f 235/4/5 234/4/5 233/4/5
f 235/4/5 233/4/5 232/4/5
f 236/4/5 234/4/5 235/4/5
f 237/4/5 234/4/5 236/4/5
f 238/4/5 234/4/5 237/4/5
f 239/4/5 237/4/5 236/4/5
f 240/4/5 237/4/5 239/4/5
f 241/4/6 242/4/6 243/4/6
f 243/4/6 242/4/6 244/4/6
f 244/4/6 242/4/6 245/4/6
f 245/4/6 242/4/6 246/4/6
f 241/4/6 243/4/6 247/4/6
f 244/4/6 245/4/6 248/4/6
f 248/4/6 245/4/6 249/4/6
f 246/4/6 242/4/6 250/4/6
f 241/4/6 247/4/6 251/4/6
f 247/4/6 248/4/6 251/4/6
f 251/4/6 248/4/6 252/4/6
f 249/4/6 250/4/6 253/4/6
f 250/4/6 242/4/6 254/4/6
f 253/4/6 250/4/6 254/4/6
f 241/4/6 251/4/6 255/4/6
f 255/4/6 251/4/6 256/4/6
f 252/4/6 253/4/6 257/4/6
f 257/4/6 253/4/6 258/4/6
f 254/4/6 242/4/6 259/4/6
f 259/4/6 242/4/6 260/4/6
f 261/3/6 262/3/6 265/3/6
f 265/3/6 262/3/6 266/3/6
f 263/3/6 264/3/6 267/3/6
f 267/3/6 264/3/6 268/3/6
f 266/3/6 267/3/6 269/3/6
f 269/3/6 267/3/6 270/3/6
f 266/3/6 269/3/6 271/3/6
f 270/3/6 267/3/6 272/3/6
f 266/3/6 271/3/6 274/3/6
f 271/3/6 272/3/6 274/3/6
f 272/3/6 267/3/6 275/3/6
f 274/3/6 272/3/6 275/3/6
f 273/3/6 274/3/6 277/3/6
f 277/3/6 274/3/6 278/3/6
f 275/3/6 276/3/6 279/3/6
f 279/3/6 276/3/6 280/3/6
f 281/2/6 282/2/6 283/2/6
f 283/2/6 282/2/6 284/2/6
f 285/3/6 286/3/6 287/3/6
f 287/3/6 286/3/6 288/3/6
f 285/3/6 287/3/6 289/3/6
f 288/3/6 286/3/6 290/3/6
f 285/3/6 289/3/6 291/3/6
f 289/3/6 290/3/6 291/3/6
f 290/3/6 286/3/6 292/3/6
f 291/3/6 290/3/6 292/3/6
f 293/3/6 294/3/6 295/3/6
f 295/3/6 294/3/6 296/3/6
f 293/3/6 295/3/6 297/3/6
f 296/3/6 294/3/6 298/3/6
f 293/3/6 297/3/6 299/3/6
f 297/3/6 298/3/6 299/3/6
f 298/3/6 294/3/6 300/3/6
f 299/3/6 298/3/6 300/3/6
f 301/3/6 302/3/6 303/3/6
f 303/3/6 302/3/6 304/3/6
